<svg id="svg" version="1.1" xmlns="http://www.w3.org/2000/svg" xmlns:xlink="http://www.w3.org/1999/xlink" width="400" height="600" viewBox="0, 0, 400,600"><g id="svgg"><path id="path0" d="M0.000 300.000 L 0.000 600.000 200.000 600.000 L 400.000 600.000 400.000 300.000 L 400.000 0.000 200.000 0.000 L 0.000 0.000 0.000 300.000 M102.033 41.320 C 108.072 44.293,112.637 51.967,112.047 58.153 L 111.897 59.732 119.718 62.657 C 124.020 64.266,132.109 67.275,137.695 69.344 C 143.281 71.413,152.510 74.869,158.203 77.024 C 170.575 81.707,168.358 81.540,174.219 78.227 C 176.904 76.708,179.947 75.057,180.979 74.558 C 182.523 73.812,182.815 73.510,182.619 72.861 C 179.098 61.156,188.578 48.902,200.522 49.721 C 208.988 50.301,216.797 58.412,216.797 66.625 C 216.797 68.238,216.861 68.335,218.066 68.533 C 219.722 68.806,279.672 76.172,280.240 76.172 C 280.366 76.172,280.469 75.501,280.469 74.680 C 280.469 63.920,292.736 55.319,302.846 58.990 C 315.410 63.553,318.790 80.291,308.946 89.200 L 306.582 91.339 309.161 97.720 C 310.579 101.230,313.801 109.185,316.322 115.398 L 320.904 126.694 323.638 126.605 C 343.729 125.953,349.137 154.718,330.215 161.587 C 322.621 164.343,311.555 159.860,309.307 153.118 C 309.216 152.844,308.771 152.897,308.002 153.273 C 307.361 153.587,293.983 158.958,278.274 165.209 L 249.712 176.575 251.839 181.546 C 253.008 184.281,254.004 186.556,254.052 186.604 C 254.099 186.651,255.009 186.419,256.073 186.088 C 264.653 183.418,274.801 189.639,276.930 198.873 C 280.523 214.457,263.929 226.827,250.807 218.346 C 241.613 212.403,240.431 197.957,248.521 190.405 L 250.586 188.477 248.483 183.301 C 247.326 180.454,246.224 178.125,246.034 178.125 C 245.757 178.125,235.253 182.320,213.927 190.947 C 212.504 191.522,212.435 191.628,212.635 192.945 C 212.750 193.710,213.133 197.676,213.484 201.758 C 213.835 205.840,214.224 209.443,214.348 209.766 C 214.472 210.088,214.543 210.615,214.506 210.938 C 214.469 211.260,215.061 217.852,215.821 225.586 C 216.582 233.320,217.414 241.978,217.670 244.824 C 217.926 247.671,218.285 250.000,218.466 250.000 C 218.648 250.000,218.692 250.169,218.564 250.376 C 218.436 250.582,218.997 251.091,219.810 251.506 C 220.624 251.921,221.620 252.627,222.025 253.074 C 222.430 253.522,222.940 253.777,223.159 253.641 C 223.379 253.506,223.447 253.574,223.312 253.794 C 223.176 254.013,223.432 254.524,223.880 254.928 C 224.802 255.761,226.953 259.823,226.953 260.731 C 226.953 261.059,227.085 261.329,227.246 261.330 C 227.826 261.333,227.778 267.072,227.176 269.668 C 226.462 272.749,225.467 274.842,223.407 277.602 L 221.902 279.618 222.513 282.485 C 224.395 291.312,220.868 300.708,212.266 309.785 C 208.418 313.845,208.606 313.318,210.547 314.602 C 211.406 315.171,212.109 315.512,212.109 315.361 C 212.109 315.209,212.329 315.355,212.598 315.685 C 212.866 316.015,214.141 317.080,215.430 318.052 C 218.630 320.464,222.245 324.193,224.282 327.181 C 225.214 328.550,226.119 329.673,226.293 329.678 C 226.466 329.683,226.509 329.527,226.388 329.330 C 226.266 329.134,226.317 328.914,226.501 328.842 C 226.684 328.770,227.598 327.480,228.531 325.977 C 237.327 311.800,251.919 307.091,262.366 315.060 C 263.056 315.585,263.711 316.016,263.823 316.016 C 264.066 316.016,265.659 317.629,266.211 318.435 C 269.402 323.090,270.765 325.339,271.704 327.493 C 272.323 328.915,272.977 330.078,273.157 330.078 C 273.337 330.078,273.358 330.298,273.205 330.566 C 273.051 330.835,273.474 330.544,274.144 329.921 C 274.815 329.297,275.271 328.638,275.158 328.456 C 275.046 328.274,275.138 328.125,275.363 328.125 C 276.066 328.125,279.274 323.402,281.087 319.699 C 286.945 307.733,285.941 293.681,278.867 288.644 C 277.770 287.863,271.659 286.567,270.996 286.975 C 270.835 287.074,270.703 286.981,270.703 286.768 C 270.703 286.555,270.326 286.261,269.865 286.115 C 265.247 284.649,262.543 277.485,264.750 272.559 C 265.207 271.538,265.478 270.703,265.353 270.703 C 264.820 270.703,268.698 267.906,270.249 267.172 C 274.950 264.947,282.179 266.305,288.086 270.524 C 304.509 282.254,308.013 307.856,296.077 328.906 C 295.041 330.732,294.177 332.354,294.157 332.510 C 294.137 332.666,293.667 333.281,293.113 333.877 C 292.560 334.473,291.767 335.435,291.353 336.015 L 290.600 337.070 292.706 338.416 C 295.091 339.942,296.372 341.526,296.750 343.418 C 296.893 344.131,297.372 345.328,297.815 346.079 C 301.038 351.542,295.318 360.139,282.901 368.495 C 281.804 369.234,280.983 369.915,281.078 370.010 C 281.173 370.105,281.030 370.186,280.762 370.191 C 280.493 370.196,279.219 370.821,277.930 371.581 C 272.230 374.939,265.410 375.485,262.463 372.818 C 262.054 372.448,261.716 372.304,261.712 372.498 C 261.699 373.180,259.388 368.937,259.382 368.220 C 259.373 367.286,258.971 367.446,254.711 370.082 C 252.844 371.237,250.185 372.750,248.803 373.446 C 247.420 374.141,246.201 374.819,246.094 374.953 C 245.986 375.086,245.723 375.202,245.508 375.210 C 245.293 375.218,243.887 375.633,242.383 376.132 C 238.464 377.433,231.217 377.693,225.193 376.749 L 220.731 376.050 219.155 377.093 C 217.322 378.306,217.152 379.274,218.356 381.634 C 221.345 387.493,229.143 389.772,237.709 387.290 C 242.242 385.976,243.607 386.273,247.949 389.511 C 249.077 390.353,250.000 390.941,250.000 390.819 C 250.000 390.697,251.237 391.966,252.748 393.638 C 257.310 398.687,261.012 404.493,263.341 410.255 C 264.176 412.321,264.982 420.313,264.355 420.313 C 264.194 420.313,264.063 420.599,264.063 420.949 C 264.063 422.003,257.794 427.942,256.086 428.505 C 249.899 430.547,241.154 424.092,236.260 413.871 C 233.830 408.796,233.871 408.824,229.737 409.389 C 226.518 409.829,216.930 409.746,215.625 409.267 C 215.303 409.149,213.545 408.587,211.719 408.019 C 201.226 404.755,191.194 394.418,187.516 383.081 C 187.044 381.628,185.564 380.561,184.733 381.075 C 184.536 381.197,184.375 381.124,184.375 380.913 C 184.375 380.702,183.716 380.316,182.910 380.054 C 182.104 379.793,180.083 378.898,178.418 378.066 C 176.753 377.234,175.388 376.688,175.385 376.851 C 175.381 377.015,175.250 376.947,175.092 376.702 C 174.934 376.456,173.413 375.325,171.713 374.189 C 161.508 367.369,153.965 357.046,149.043 343.164 C 148.028 340.302,138.473 355.983,135.772 364.943 C 132.315 376.409,133.196 380.428,139.904 383.812 C 143.805 385.780,144.960 387.091,145.225 389.856 C 145.618 393.944,142.423 396.933,138.257 396.374 C 137.411 396.261,136.719 396.233,136.719 396.312 C 136.719 396.391,137.070 397.347,137.500 398.437 C 141.641 408.943,128.500 416.419,118.470 409.264 C 101.346 397.050,108.429 351.501,131.813 323.465 C 134.385 320.381,134.391 320.368,133.540 319.772 C 133.070 319.443,132.494 319.282,132.261 319.415 C 132.027 319.548,131.965 319.514,132.122 319.341 C 132.359 319.078,128.351 316.222,127.733 316.214 C 127.441 316.210,119.124 307.864,117.609 306.055 C 116.889 305.195,116.360 304.492,116.433 304.492 C 116.506 304.492,116.223 303.912,115.804 303.202 C 115.215 302.205,114.864 301.969,114.259 302.164 C 106.320 304.715,101.301 303.761,93.863 298.287 C 93.174 297.780,92.698 297.276,92.806 297.168 C 92.913 297.060,92.423 296.485,91.716 295.890 C 91.008 295.295,90.476 294.745,90.533 294.667 C 90.589 294.589,90.170 293.608,89.602 292.487 C 86.239 285.849,85.852 279.139,88.490 273.174 C 89.000 272.021,89.418 270.984,89.418 270.869 C 89.418 270.755,89.822 270.325,90.315 269.914 C 90.808 269.503,91.069 269.161,90.895 269.154 C 90.722 269.146,91.537 268.302,92.708 267.278 C 97.748 262.868,103.936 261.488,108.879 263.672 C 110.832 264.535,110.662 264.732,111.743 260.343 C 113.337 253.868,116.149 247.523,119.235 243.436 C 120.257 242.082,121.094 240.928,121.094 240.871 C 121.094 240.718,127.463 234.375,127.616 234.375 C 127.687 234.375,128.754 233.553,129.986 232.548 C 133.067 230.034,137.954 226.926,142.486 224.595 C 144.578 223.519,146.472 222.511,146.695 222.355 C 146.918 222.198,147.270 222.030,147.476 221.981 C 147.683 221.933,149.740 221.185,152.048 220.320 C 171.359 213.086,179.613 214.053,175.724 223.093 C 174.704 225.465,174.574 225.346,179.883 226.935 C 184.493 228.315,188.390 229.937,190.205 231.229 C 191.646 232.255,191.797 232.238,191.797 231.055 C 191.797 230.518,191.656 230.078,191.485 230.078 C 191.313 230.078,191.236 229.507,191.313 228.809 C 191.390 228.110,191.268 225.957,191.041 224.023 C 190.814 222.090,190.618 220.244,190.606 219.922 C 190.469 216.443,188.952 200.779,188.690 200.151 C 188.501 199.696,187.233 198.715,185.872 197.969 C 180.459 195.003,179.118 188.393,183.046 184.025 C 184.882 181.983,185.234 180.035,183.910 179.243 C 183.629 179.075,177.070 174.652,169.336 169.414 L 155.273 159.890 153.042 161.990 C 145.808 168.797,133.274 168.161,127.848 160.713 C 127.231 159.865,126.911 159.699,126.507 160.017 C 126.215 160.246,119.946 165.139,112.575 170.891 C 102.185 178.999,99.233 181.491,99.441 181.983 C 101.305 186.391,101.333 186.525,101.331 190.820 C 101.321 211.290,73.087 215.581,67.765 195.921 C 63.329 179.533,82.585 166.392,95.027 177.317 L 96.463 178.578 101.911 174.347 C 104.908 172.021,111.328 167.041,116.177 163.281 C 123.540 157.573,124.957 156.316,124.764 155.664 C 124.637 155.234,124.261 153.718,123.929 152.295 L 123.326 149.708 120.354 147.965 C 118.720 147.006,111.598 142.829,104.528 138.681 L 91.672 131.140 90.882 132.225 C 81.105 145.646,58.074 134.538,60.857 117.743 C 63.954 99.056,88.061 97.526,94.103 115.633 L 95.117 118.673 99.414 117.406 C 106.031 115.455,117.145 110.647,118.896 108.978 C 119.087 108.797,117.949 106.187,116.313 103.057 C 110.766 92.444,101.090 74.023,101.033 73.970 C 101.002 73.941,99.673 74.182,98.079 74.506 C 86.859 76.784,75.693 65.931,77.675 54.675 C 79.702 43.167,92.041 36.401,102.033 41.320 M110.008 65.827 C 109.389 67.011,107.941 68.901,106.791 70.025 C 104.197 72.561,103.537 70.437,111.734 85.956 C 115.610 93.293,119.462 100.642,120.296 102.285 C 121.129 103.929,122.063 105.609,122.371 106.018 C 122.891 106.710,164.354 84.555,164.434 83.542 C 164.444 83.407,162.739 82.676,160.645 81.918 C 158.550 81.160,146.645 76.744,134.189 72.106 C 107.712 62.246,111.381 63.198,110.008 65.827 M215.718 74.707 C 215.232 76.050,214.793 77.262,214.741 77.401 C 214.690 77.540,221.064 82.889,228.906 89.289 C 236.748 95.688,246.841 103.975,251.334 107.705 L 259.504 114.487 269.694 104.021 C 275.299 98.265,281.095 92.285,282.575 90.733 L 285.265 87.911 283.865 85.850 C 283.094 84.716,282.162 82.998,281.794 82.031 C 281.425 81.064,281.099 80.236,281.071 80.190 C 281.042 80.145,273.732 79.215,264.826 78.124 C 255.920 77.033,241.672 75.269,233.164 74.203 C 224.656 73.137,217.449 72.266,217.148 72.266 C 216.832 72.266,216.229 73.295,215.718 74.707 M182.986 77.822 C 182.139 78.244,179.698 79.569,177.562 80.766 L 173.679 82.941 176.988 84.215 C 178.807 84.916,180.491 85.546,180.729 85.616 C 181.757 85.916,185.880 78.725,185.177 77.857 C 184.527 77.054,184.526 77.054,182.986 77.822 M210.397 81.865 L 208.880 83.181 212.489 91.514 L 216.099 99.848 219.085 100.910 C 220.727 101.494,229.274 104.850,238.079 108.368 C 246.883 111.885,253.651 114.417,253.118 113.995 C 252.585 113.572,248.557 110.294,244.166 106.711 C 239.776 103.127,233.800 98.256,230.885 95.885 C 227.971 93.515,222.680 89.198,219.128 86.293 C 215.576 83.388,212.500 80.907,212.292 80.780 C 212.084 80.654,211.231 81.142,210.397 81.865 M186.602 84.292 C 185.571 85.892,184.780 87.234,184.844 87.275 C 185.220 87.512,210.760 97.515,210.844 97.457 C 211.463 97.033,205.230 84.794,204.526 85.053 C 200.846 86.403,193.264 84.987,189.665 82.277 L 188.477 81.383 186.602 84.292 M164.844 87.810 C 162.373 89.215,152.615 94.687,143.159 99.968 C 133.703 105.249,125.662 109.753,125.289 109.976 C 124.683 110.339,125.183 111.485,130.079 120.944 L 135.546 131.506 137.951 130.918 C 140.978 130.179,144.937 130.663,148.245 132.178 C 149.491 132.748,150.540 133.168,150.577 133.111 C 150.614 133.054,152.816 129.580,155.471 125.391 C 158.127 121.201,164.405 111.467,169.424 103.759 C 174.443 96.050,178.585 89.563,178.630 89.343 C 178.674 89.122,177.480 88.460,175.977 87.872 C 174.473 87.283,172.363 86.453,171.289 86.028 L 169.336 85.254 164.844 87.810 M275.438 103.644 L 262.536 116.965 263.788 118.068 C 265.453 119.535,265.516 119.563,288.725 128.889 L 308.894 136.994 310.506 134.542 C 311.914 132.402,316.210 128.516,317.170 128.516 C 317.332 128.516,314.487 121.177,310.848 112.207 C 307.208 103.237,303.943 95.148,303.590 94.230 C 303.114 92.987,302.798 92.630,302.354 92.830 C 299.719 94.015,293.666 93.224,289.970 91.210 L 288.339 90.322 275.438 103.644 M173.372 104.789 C 168.287 112.575,161.722 122.697,158.784 127.281 L 153.442 135.618 154.573 137.047 C 158.454 141.951,159.686 148.373,157.868 154.216 L 157.142 156.548 171.681 166.309 L 186.220 176.069 186.894 174.929 C 187.597 173.738,190.964 170.117,191.369 170.117 C 191.497 170.117,192.744 169.593,194.141 168.952 C 197.202 167.548,203.900 167.228,205.989 168.387 L 207.096 169.001 214.208 161.747 C 226.153 149.564,231.050 144.496,231.154 144.210 C 231.208 144.059,227.218 134.629,222.286 123.255 L 213.319 102.574 207.538 100.291 C 193.944 94.921,182.937 90.625,182.783 90.628 C 182.692 90.630,178.457 97.002,173.372 104.789 M223.603 116.663 C 226.473 123.289,230.035 131.473,231.521 134.849 L 234.221 140.986 244.665 130.209 C 250.410 124.282,255.022 119.345,254.914 119.237 C 254.807 119.130,246.758 115.883,237.027 112.022 C 227.297 108.161,219.122 104.915,218.861 104.808 C 218.600 104.701,220.734 110.036,223.603 116.663 M115.039 115.213 C 109.593 117.975,102.294 120.759,97.307 121.975 L 95.199 122.489 94.345 125.126 L 93.490 127.763 97.624 130.234 C 104.160 134.139,123.385 145.313,123.569 145.313 C 123.660 145.313,123.945 144.478,124.202 143.457 C 124.944 140.506,126.514 138.031,129.327 135.377 L 131.943 132.910 128.623 126.513 C 123.940 117.490,121.064 112.098,120.975 112.175 C 120.933 112.211,118.262 113.578,115.039 115.213 M249.023 131.168 C 243.438 136.862,238.207 142.270,237.401 143.186 L 235.934 144.851 240.575 155.335 C 243.127 161.102,245.913 167.402,246.766 169.336 C 247.763 171.593,248.514 172.817,248.866 172.754 C 249.167 172.700,260.359 168.285,273.737 162.942 L 298.060 153.228 283.112 140.331 C 263.052 123.022,261.291 121.551,260.156 121.155 C 259.250 120.839,258.445 121.563,249.023 131.168 M273.828 127.030 C 274.028 127.236,295.516 145.795,299.875 149.526 L 302.287 151.591 304.952 150.554 L 307.617 149.517 307.617 144.893 C 307.617 140.596,307.562 140.256,306.836 140.073 C 306.247 139.925,277.497 128.470,274.219 127.078 C 273.896 126.941,273.721 126.919,273.828 127.030 M221.663 159.591 L 210.401 171.151 211.083 172.197 C 213.642 176.115,214.886 181.145,214.180 184.716 C 213.963 185.817,213.867 186.719,213.969 186.719 C 214.105 186.719,232.955 179.199,244.181 174.667 C 244.721 174.449,234.224 149.329,233.140 148.244 C 233.022 148.126,227.858 153.232,221.663 159.591 M248.135 345.330 C 244.674 347.060,232.647 360.902,233.694 361.950 C 234.362 362.617,243.647 359.043,245.276 357.491 C 245.654 357.131,246.160 356.795,246.400 356.745 C 247.212 356.575,255.529 350.687,255.743 350.131 C 256.094 349.215,254.708 346.181,253.458 345.128 C 251.937 343.849,251.030 343.883,248.135 345.330 M306.854 434.553 L 307.813 435.511 307.813 449.436 L 307.813 463.360 309.971 461.387 C 318.043 454.010,333.278 454.097,340.451 461.563 C 346.076 467.418,346.614 470.300,346.650 494.792 L 346.680 514.779 345.733 515.788 C 344.305 517.309,333.512 517.361,331.760 515.855 L 330.664 514.912 330.469 496.226 L 330.273 477.539 329.352 475.781 C 324.744 466.985,313.234 467.766,308.898 477.170 C 308.022 479.071,308.005 479.391,307.813 497.203 L 307.617 515.304 306.695 516.051 C 305.879 516.711,305.099 516.797,299.927 516.797 L 294.081 516.797 292.939 515.655 L 291.797 514.513 291.797 475.195 L 291.797 435.877 292.939 434.736 L 294.081 433.594 299.988 433.594 C 305.739 433.594,305.920 433.619,306.854 434.553 M210.285 442.205 C 211.746 443.354,212.105 445.179,212.107 451.465 L 212.109 457.031 218.377 457.031 C 226.429 457.031,226.350 456.975,226.759 462.964 C 227.231 469.900,226.750 470.313,218.169 470.313 L 212.067 470.313 212.186 485.449 C 212.337 504.643,212.003 503.846,220.027 504.208 C 225.757 504.467,226.172 504.905,226.172 510.704 C 226.172 516.425,225.416 517.004,217.383 517.443 C 199.306 518.431,195.882 513.207,196.156 485.059 L 196.300 470.313 191.679 470.313 C 185.129 470.313,184.375 469.627,184.375 463.672 C 184.375 457.697,185.117 457.031,191.776 457.031 L 196.494 457.031 196.234 450.420 L 195.974 443.810 197.176 442.608 L 198.377 441.406 203.824 441.406 C 208.719 441.406,209.372 441.487,210.285 442.205 M96.680 456.056 C 104.478 457.694,109.642 462.590,111.992 470.575 C 112.675 472.894,113.299 510.347,112.709 513.530 C 112.182 516.368,111.127 516.797,104.678 516.797 C 99.587 516.797,98.807 516.710,97.992 516.051 L 97.070 515.304 96.875 496.812 L 96.680 478.320 95.584 476.088 C 90.900 466.551,77.520 468.180,74.405 478.667 C 73.934 480.253,73.828 483.766,73.828 497.746 L 73.828 514.881 72.795 515.839 C 71.153 517.361,60.395 517.322,58.955 515.789 L 58.008 514.781 58.008 487.046 L 58.008 459.311 59.284 458.171 C 60.549 457.040,60.597 457.031,65.466 457.031 C 71.785 457.031,72.656 457.626,72.656 461.943 L 72.656 464.570 73.761 463.047 C 78.151 456.993,87.525 454.134,96.680 456.056 M162.305 456.434 C 170.226 458.635,176.213 464.027,177.932 470.508 C 178.496 472.632,178.700 487.937,178.520 514.551 C 178.508 516.430,177.321 516.797,171.259 516.797 L 165.565 516.797 164.423 515.655 C 163.436 514.668,163.281 514.220,163.281 512.351 L 163.281 510.190 161.451 512.146 C 154.459 519.622,134.178 519.797,127.531 512.440 C 121.867 506.170,122.085 494.809,127.982 488.923 C 131.808 485.103,135.453 483.813,148.617 481.622 C 162.749 479.270,162.699 479.292,162.689 475.326 C 162.668 466.445,146.007 464.750,141.727 473.194 C 140.601 475.415,140.729 475.378,134.260 475.385 C 125.978 475.393,124.867 473.941,128.111 467.353 C 130.956 461.573,136.821 457.669,145.117 456.034 C 148.835 455.301,159.086 455.539,162.305 456.434 M267.188 456.635 C 275.606 458.371,282.043 463.429,285.008 470.636 C 286.746 474.862,286.285 475.417,280.071 476.574 C 271.994 478.077,272.600 478.128,271.115 475.815 C 265.770 467.485,254.140 467.304,248.732 475.466 C 243.891 482.774,244.465 494.853,249.924 500.522 C 255.688 506.507,267.781 505.202,271.053 498.241 C 272.178 495.849,272.259 495.837,278.631 497.071 C 286.805 498.654,287.023 498.923,284.392 504.154 C 274.314 524.188,241.498 522.370,232.162 501.259 C 221.221 476.518,241.057 451.246,267.188 456.635 M160.742 489.887 C 159.883 490.074,156.543 490.660,153.320 491.188 C 141.858 493.068,138.220 495.333,138.774 500.245 C 139.597 507.549,151.864 508.699,158.474 502.092 C 161.171 499.397,163.281 494.246,163.281 490.358 C 163.281 489.390,163.144 489.364,160.742 489.887 " stroke="none" fill="#3179ac" fill-rule="evenodd"></path><path id="path1" d="M90.898 40.247 C 75.029 44.246,73.044 65.873,87.891 73.007 C 90.961 74.482,96.424 74.981,99.858 74.100 L 101.082 73.786 108.409 87.772 C 112.438 95.464,116.605 103.384,117.667 105.372 L 119.599 108.986 113.608 111.923 C 108.386 114.482,99.596 117.756,95.848 118.537 C 94.648 118.787,94.621 118.760,94.363 117.034 C 92.229 102.807,73.139 98.021,64.447 109.533 C 51.221 127.051,76.652 149.043,90.643 132.186 L 91.638 130.988 106.303 139.615 C 114.368 144.360,121.611 148.632,122.398 149.108 C 123.512 149.782,123.828 150.222,123.828 151.097 C 123.828 151.714,124.090 153.082,124.410 154.137 C 124.730 155.192,124.993 156.165,124.996 156.301 C 124.998 156.436,123.989 157.306,122.754 158.234 C 121.519 159.162,116.113 163.367,110.742 167.578 C 105.371 171.789,99.980 175.983,98.762 176.898 L 96.548 178.561 94.172 176.812 C 77.261 164.362,57.470 188.683,72.380 203.593 C 85.790 217.003,107.858 200.879,99.896 183.489 L 98.957 181.438 100.920 179.879 C 102.000 179.022,108.313 174.083,114.950 168.904 L 127.016 159.488 128.933 161.516 C 135.416 168.370,146.187 168.528,153.062 161.869 L 155.196 159.803 163.438 165.318 C 167.971 168.351,174.635 172.844,178.246 175.302 C 181.858 177.760,184.858 179.708,184.914 179.631 C 185.138 179.324,185.983 176.088,185.867 175.983 C 185.798 175.921,179.270 171.526,171.360 166.216 C 160.018 158.601,157.031 156.425,157.229 155.917 C 159.521 150.044,158.747 142.745,155.358 138.264 C 154.667 137.350,153.939 136.384,153.740 136.118 C 153.335 135.575,156.178 130.995,172.401 106.055 C 177.990 97.461,182.576 90.401,182.591 90.365 C 182.624 90.284,210.712 101.378,212.305 102.101 C 213.339 102.571,230.117 139.656,231.097 143.638 C 231.220 144.138,227.881 147.827,219.352 156.618 L 207.437 168.901 208.699 169.981 C 209.393 170.576,210.057 171.069,210.175 171.078 C 210.293 171.087,215.478 165.833,221.698 159.403 C 229.592 151.242,233.096 147.870,233.300 148.234 C 234.103 149.669,244.892 174.379,244.769 174.501 C 244.691 174.580,237.706 177.414,229.247 180.799 C 212.701 187.420,213.264 187.100,212.632 190.259 C 212.429 191.273,212.490 191.487,212.926 191.294 C 214.735 190.494,246.294 177.807,246.337 177.862 C 246.366 177.899,247.372 180.291,248.572 183.177 L 250.755 188.424 249.247 189.715 C 234.039 202.732,249.640 227.993,267.514 219.294 C 285.816 210.388,275.825 180.919,256.268 186.123 C 255.097 186.435,254.054 186.606,253.951 186.503 C 253.430 185.982,249.714 176.721,249.936 176.497 C 250.079 176.354,258.896 172.777,269.531 168.548 C 286.280 161.888,307.573 153.394,308.794 152.886 C 309.012 152.796,309.523 153.339,309.929 154.094 C 314.983 163.478,328.853 165.176,336.663 157.366 C 348.086 145.943,339.205 125.400,323.400 126.688 L 320.823 126.898 317.668 119.015 C 315.932 114.680,312.673 106.617,310.425 101.097 L 306.338 91.061 307.926 89.964 C 317.101 83.629,316.375 67.260,306.641 60.969 C 296.200 54.220,282.753 60.575,280.793 73.185 C 280.441 75.447,280.179 76.172,279.713 76.172 C 279.374 76.172,269.782 75.029,258.396 73.633 C 247.011 72.236,233.060 70.526,227.395 69.833 C 221.730 69.140,217.050 68.393,216.995 68.173 C 216.939 67.953,216.706 66.553,216.477 65.061 C 214.283 50.795,197.334 44.802,187.368 54.769 C 182.761 59.377,180.788 67.569,182.967 73.047 C 183.131 73.458,182.710 73.866,181.558 74.414 C 180.655 74.844,177.488 76.544,174.520 78.192 L 169.125 81.190 148.723 73.579 C 137.501 69.394,124.641 64.595,120.145 62.916 L 111.970 59.863 111.890 57.141 C 111.561 45.956,101.232 37.643,90.898 40.247 M127.734 69.571 C 160.078 81.585,164.808 83.394,164.539 83.643 C 164.273 83.890,161.024 85.708,136.914 99.110 C 131.328 102.214,125.844 105.263,124.728 105.884 L 122.699 107.014 119.481 100.870 C 117.711 97.491,113.598 89.683,110.339 83.518 L 104.415 72.310 106.804 69.846 C 108.118 68.491,109.619 66.477,110.140 65.370 C 111.031 63.473,111.144 63.379,112.086 63.743 C 112.636 63.956,119.678 66.579,127.734 69.571 M235.547 74.404 C 245.107 75.582,258.730 77.249,265.820 78.109 C 272.910 78.968,279.251 79.765,279.910 79.880 C 280.932 80.057,281.244 80.411,282.016 82.273 C 282.514 83.475,283.508 85.227,284.225 86.166 L 285.529 87.874 272.607 101.163 C 265.501 108.473,259.601 114.453,259.498 114.453 C 259.394 114.453,255.325 111.148,250.456 107.108 C 245.586 103.069,235.486 94.776,228.012 88.680 C 217.705 80.273,214.488 77.447,214.692 76.981 C 214.840 76.644,215.328 75.363,215.776 74.137 C 216.454 72.280,216.722 71.936,217.377 72.084 C 217.810 72.182,225.986 73.226,235.547 74.404 M185.252 77.832 C 185.781 78.639,183.213 83.740,181.332 85.622 C 181.166 85.787,179.310 85.245,177.207 84.418 L 173.383 82.913 178.781 79.934 C 184.941 76.535,184.496 76.679,185.252 77.832 M230.889 95.801 C 241.213 104.233,250.695 111.918,251.959 112.878 C 253.223 113.838,254.214 114.666,254.162 114.718 C 254.111 114.770,246.605 111.856,237.483 108.244 C 228.362 104.631,219.792 101.254,218.439 100.740 L 215.980 99.805 212.459 91.797 C 210.522 87.393,208.867 83.613,208.780 83.398 C 208.662 83.104,211.423 80.623,212.015 80.491 C 212.071 80.479,220.564 87.368,230.889 95.801 M189.602 81.980 C 191.924 84.546,199.878 86.185,204.814 85.115 C 205.399 84.989,205.976 85.980,208.023 90.625 C 209.395 93.740,210.702 96.597,210.926 96.973 C 211.151 97.349,211.227 97.656,211.096 97.656 C 210.815 97.656,185.021 87.489,184.832 87.303 C 184.654 87.129,188.419 81.252,188.709 81.251 C 188.837 81.250,189.239 81.578,189.602 81.980 M174.705 87.221 C 177.013 88.127,178.902 88.986,178.904 89.131 C 178.905 89.277,174.636 95.956,169.416 103.975 C 164.196 111.994,157.824 121.856,155.256 125.891 C 151.972 131.050,150.412 133.175,150.000 133.050 C 149.678 132.952,148.311 132.410,146.963 131.846 C 144.286 130.726,139.127 130.408,136.965 131.230 C 135.650 131.730,135.156 131.749,135.156 131.298 C 135.156 131.110,132.759 126.335,129.830 120.687 C 124.874 111.132,124.553 110.383,125.207 109.904 C 125.594 109.621,130.583 106.802,136.295 103.640 C 142.007 100.477,151.777 95.025,158.008 91.524 C 164.358 87.956,169.593 85.250,169.922 85.367 C 170.244 85.482,172.396 86.316,174.705 87.221 M294.870 92.965 C 296.878 93.438,301.036 93.342,302.392 92.791 C 302.908 92.581,303.430 93.537,305.197 97.926 C 306.391 100.893,309.334 108.154,311.735 114.063 C 314.137 119.971,316.427 125.627,316.824 126.633 L 317.545 128.461 315.856 129.451 C 313.983 130.548,310.666 133.997,309.779 135.770 C 309.463 136.399,309.176 136.967,309.140 137.032 C 308.786 137.667,265.467 119.599,263.698 118.078 L 262.356 116.925 269.942 109.146 C 274.115 104.868,279.974 98.873,282.962 95.824 L 288.396 90.281 290.585 91.376 C 291.788 91.978,293.717 92.693,294.870 92.965 M236.440 111.660 C 246.154 115.495,254.428 118.749,254.828 118.891 C 255.423 119.102,253.627 121.130,244.909 130.092 C 239.054 136.110,234.204 140.975,234.132 140.902 C 233.564 140.335,218.255 104.688,218.579 104.688 C 218.689 104.688,226.726 107.825,236.440 111.660 M126.675 122.505 L 132.061 132.889 129.577 135.165 C 127.002 137.525,125.039 140.646,124.239 143.652 C 123.997 144.565,123.665 145.313,123.502 145.313 C 123.287 145.313,93.968 128.381,93.484 127.978 C 92.719 127.339,95.261 122.290,96.456 122.076 C 100.154 121.410,110.089 117.702,115.292 115.045 C 118.376 113.470,120.986 112.168,121.094 112.152 C 121.201 112.135,123.713 116.794,126.675 122.505 M260.664 121.343 C 261.352 121.695,268.578 127.716,276.722 134.722 C 284.867 141.729,292.986 148.691,294.765 150.195 C 296.544 151.699,298.010 153.029,298.023 153.150 C 298.051 153.407,248.440 173.193,248.277 172.989 C 247.464 171.975,235.953 144.819,236.177 144.446 C 236.343 144.170,241.410 138.884,247.438 132.699 C 253.466 126.513,258.457 121.284,258.529 121.078 C 258.714 120.546,259.233 120.610,260.664 121.343 M289.453 133.107 C 297.510 136.323,304.893 139.250,305.859 139.610 L 307.617 140.266 307.617 144.941 L 307.617 149.617 304.992 150.647 C 302.705 151.544,302.278 151.607,301.682 151.131 C 299.365 149.287,275.553 128.724,274.219 127.416 C 273.477 126.689,271.923 126.109,289.453 133.107 M199.414 172.741 C 195.862 173.495,194.800 173.940,193.276 175.314 C 190.524 177.796,189.117 182.420,191.113 182.423 C 191.597 182.424,192.534 182.755,193.195 183.159 C 194.369 183.874,194.422 183.874,195.344 183.166 C 197.560 181.462,199.024 182.330,198.869 185.256 C 198.582 190.660,205.589 191.382,208.273 186.225 C 211.629 179.775,206.078 171.326,199.414 172.741 M186.546 187.978 C 184.384 191.064,188.801 195.562,192.205 193.741 C 194.223 192.661,194.961 191.444,194.334 190.231 C 192.959 187.572,187.863 186.097,186.546 187.978 M180.202 244.126 C 176.848 245.822,173.834 249.177,171.770 253.512 L 170.136 256.944 167.259 254.257 C 147.353 235.667,120.036 259.997,137.484 280.777 L 139.812 283.550 138.517 284.350 C 127.609 291.092,130.243 306.446,143.899 315.725 C 163.079 328.758,195.889 322.549,211.524 302.930 C 221.672 290.195,219.562 276.575,206.794 272.396 L 203.626 271.359 203.391 267.223 C 202.450 250.625,190.630 238.852,180.202 244.126 M211.052 255.596 C 208.845 256.404,208.811 256.533,209.516 261.434 C 209.868 263.882,210.156 266.436,210.156 267.111 C 210.156 268.214,210.372 268.439,212.327 269.363 C 213.521 269.928,215.490 271.359,216.703 272.543 L 218.907 274.695 219.667 273.774 C 226.389 265.612,220.077 252.292,211.052 255.596 M189.931 259.145 C 193.640 261.575,194.530 270.163,191.350 272.839 C 187.473 276.102,182.020 271.304,182.042 264.648 C 182.060 259.203,185.915 256.514,189.931 259.145 M155.054 265.455 C 159.029 269.045,159.726 275.899,156.449 279.176 C 152.836 282.789,147.030 278.814,146.254 272.197 C 145.485 265.642,150.775 261.589,155.054 265.455 M100.123 268.374 C 84.214 274.675,93.852 302.674,110.352 298.090 C 112.886 297.386,113.000 297.230,112.260 295.479 C 111.052 292.624,110.524 290.053,110.282 285.859 L 110.041 281.679 108.593 281.100 C 107.796 280.781,106.072 280.399,104.761 280.251 C 102.091 279.949,100.934 279.101,101.360 277.758 C 101.924 275.980,105.432 275.339,110.254 276.133 C 111.730 276.376,112.109 276.327,112.109 275.892 C 112.109 275.591,111.934 275.453,111.719 275.586 C 111.504 275.719,111.328 275.643,111.328 275.417 C 111.328 275.191,111.680 274.787,112.109 274.519 C 112.539 274.250,112.891 273.885,112.891 273.706 C 112.891 273.528,113.160 273.112,113.490 272.782 C 115.752 270.520,104.268 266.732,100.123 268.374 M183.080 275.415 C 187.098 276.930,187.812 280.840,184.394 282.608 C 183.192 283.229,182.831 282.761,182.818 280.566 C 182.811 279.468,180.570 279.341,178.168 280.302 C 176.694 280.892,176.647 280.965,176.988 282.155 C 177.484 283.883,177.455 283.985,176.465 283.983 C 175.311 283.981,173.250 282.705,172.464 281.505 C 170.133 277.947,177.930 273.473,183.080 275.415 M200.461 289.941 C 202.534 291.598,201.143 293.882,196.691 296.137 L 193.304 297.852 191.143 302.327 C 185.024 314.999,172.905 319.025,160.352 312.558 C 147.650 306.014,142.866 286.317,155.273 291.651 C 169.962 297.966,186.003 297.513,197.070 290.472 C 198.831 289.351,199.577 289.235,200.461 289.941 M154.315 300.634 C 157.634 309.363,172.064 314.534,178.649 309.354 C 182.961 305.962,168.734 299.609,156.826 299.609 L 153.926 299.609 154.315 300.634 M190.542 325.584 C 176.654 329.089,171.766 342.478,179.904 354.720 C 192.947 374.339,221.484 370.295,221.484 348.828 C 221.484 333.443,205.873 321.715,190.542 325.584 M129.909 384.773 C 129.279 385.176,128.632 385.424,128.471 385.324 C 128.311 385.225,128.069 385.322,127.934 385.541 C 127.799 385.759,127.083 385.938,126.344 385.938 C 125.605 385.938,125.000 386.108,125.000 386.316 C 125.000 386.524,124.754 386.600,124.454 386.485 C 124.153 386.369,123.796 386.455,123.660 386.675 C 123.524 386.895,123.177 386.985,122.889 386.875 C 122.602 386.764,122.080 386.960,121.730 387.310 C 121.262 387.778,121.092 387.810,121.088 387.430 C 121.083 387.004,121.025 387.004,120.756 387.428 C 120.576 387.711,120.184 387.980,119.883 388.025 C 119.582 388.071,119.160 388.204,118.945 388.322 C 118.730 388.440,117.471 388.854,116.146 389.242 L 113.738 389.947 113.935 391.360 C 115.040 399.288,121.117 407.790,125.690 407.809 C 126.553 407.812,126.542 407.764,125.275 405.922 C 121.504 400.440,123.091 398.130,127.469 402.728 C 132.993 408.529,135.308 405.490,131.849 396.980 C 129.673 391.628,131.060 390.194,136.833 391.828 C 141.781 393.229,141.482 389.573,136.447 387.109 C 134.471 386.143,132.524 385.044,132.119 384.668 C 131.247 383.857,131.350 383.853,129.909 384.773 M293.830 434.003 C 291.757 434.835,291.797 434.045,291.799 474.890 C 291.801 515.336,291.795 515.200,293.749 516.210 C 295.665 517.201,305.446 517.045,306.562 516.005 C 307.809 514.843,307.802 514.957,307.909 496.094 L 308.008 478.711 309.094 476.499 C 312.779 468.996,323.325 467.239,327.986 473.351 C 330.647 476.840,330.654 476.894,330.763 496.289 C 330.873 515.932,330.828 515.387,332.408 516.204 C 334.371 517.219,344.108 517.047,345.474 515.973 L 346.522 515.148 346.398 494.195 C 346.261 471.079,346.297 471.441,343.521 465.951 C 337.963 454.964,319.947 452.528,309.976 461.415 L 307.813 463.344 307.813 449.611 L 307.813 435.877 306.671 434.736 L 305.529 433.594 300.128 433.619 C 297.157 433.632,294.323 433.805,293.830 434.003 M198.233 441.952 C 196.254 442.814,196.022 443.893,196.328 450.841 L 196.600 457.031 192.024 457.031 C 185.138 457.031,184.796 457.342,184.778 463.604 C 184.760 469.924,185.161 470.313,191.703 470.313 L 196.357 470.313 196.323 486.426 C 196.286 503.877,196.370 504.734,198.591 509.588 C 201.149 515.178,205.963 517.370,215.625 517.345 C 224.573 517.321,226.173 516.415,226.170 511.373 C 226.165 505.238,225.373 504.308,220.128 504.275 C 215.229 504.244,214.100 503.791,212.902 501.373 L 211.938 499.425 211.820 484.869 L 211.703 470.313 217.954 470.313 L 224.206 470.313 225.462 469.191 L 226.717 468.069 226.634 463.926 C 226.495 457.046,226.477 457.032,217.846 457.030 L 211.914 457.029 211.772 450.688 C 211.608 443.417,211.440 442.748,209.585 441.973 C 207.814 441.233,199.916 441.218,198.233 441.952 M87.170 455.871 C 81.495 456.649,76.476 459.328,74.023 462.890 L 72.852 464.592 72.750 462.472 C 72.517 457.585,71.744 457.035,65.107 457.033 C 60.520 457.031,60.478 457.040,59.345 458.173 L 58.203 459.315 58.203 487.097 L 58.203 514.879 59.162 515.838 C 60.092 516.769,60.289 516.797,65.833 516.797 L 71.544 516.797 72.686 515.655 L 73.828 514.513 73.828 497.341 C 73.828 478.153,73.859 477.890,76.517 474.374 C 81.167 468.221,90.103 468.051,94.478 474.032 C 97.022 477.509,97.039 477.665,97.055 497.136 L 97.070 514.780 98.017 515.788 C 98.950 516.782,99.047 516.797,104.590 516.797 L 110.216 516.797 111.325 515.689 C 112.915 514.098,112.962 513.359,112.799 492.188 C 112.639 471.339,112.632 471.274,110.078 466.016 C 106.418 458.483,97.365 454.474,87.170 455.871 M145.898 456.022 C 135.951 457.701,128.972 463.093,126.961 470.653 C 125.923 474.554,127.309 475.391,134.802 475.391 L 140.271 475.391 140.936 474.149 C 145.988 464.719,162.891 465.699,162.891 475.421 C 162.891 479.212,162.450 479.410,149.023 481.648 C 134.738 484.028,130.617 485.665,126.689 490.520 C 121.921 496.413,122.448 507.006,127.782 512.502 C 134.664 519.594,153.848 519.445,161.284 512.242 C 162.468 511.095,163.490 510.156,163.555 510.156 C 163.619 510.156,163.672 511.301,163.672 512.701 C 163.672 516.400,164.415 516.793,171.404 516.795 C 176.399 516.797,176.635 516.760,177.557 515.838 L 178.516 514.879 178.516 494.407 C 178.516 472.383,178.424 471.145,176.510 467.233 C 172.235 458.494,159.304 453.758,145.898 456.022 M255.664 456.104 C 238.880 458.708,229.128 471.048,229.801 488.829 C 230.490 507.006,241.441 517.769,259.180 517.704 C 271.859 517.658,281.257 512.173,285.027 502.619 L 286.075 499.964 285.254 499.143 C 284.640 498.529,282.990 498.039,278.695 497.198 C 272.338 495.952,272.364 495.947,271.093 498.438 C 267.815 504.864,256.375 506.554,250.649 501.458 C 242.302 494.028,244.121 475.710,253.695 470.794 C 259.969 467.573,266.835 469.735,271.883 476.521 L 272.867 477.844 278.523 476.764 C 286.863 475.171,287.071 474.882,284.098 468.979 C 279.605 460.057,266.992 454.346,255.664 456.104 M162.709 494.597 C 159.850 505.759,145.088 510.968,139.560 502.765 C 135.792 497.173,140.696 493.063,153.573 491.019 C 156.442 490.564,159.756 489.981,160.938 489.725 L 163.086 489.258 163.206 490.723 C 163.272 491.529,163.049 493.272,162.709 494.597 " stroke="none" fill="#f2d4aa" fill-rule="evenodd"></path><path id="path2" d="M196.779 167.980 C 190.693 169.506,186.243 174.088,185.017 180.090 C 184.680 181.740,184.165 182.736,182.920 184.151 C 179.133 188.452,180.543 195.049,185.872 197.969 C 189.097 199.736,188.835 198.673,190.412 216.380 C 191.921 233.310,191.929 232.457,190.265 231.272 C 188.392 229.938,184.543 228.330,179.883 226.935 C 174.574 225.346,174.704 225.465,175.724 223.093 C 179.567 214.159,171.806 213.127,152.734 220.036 C 130.442 228.111,116.240 242.076,111.743 260.343 C 110.662 264.732,110.832 264.535,108.879 263.672 C 103.646 261.360,97.147 262.993,92.321 267.833 C 79.842 280.349,89.753 303.516,107.585 303.516 C 109.328 303.516,111.052 303.169,114.258 302.173 C 114.896 301.974,115.322 302.378,116.589 304.383 C 119.011 308.218,125.720 314.711,130.396 317.745 L 134.411 320.350 131.821 323.456 C 115.545 342.969,105.702 374.472,109.750 394.091 C 112.209 406.006,121.195 414.229,129.211 411.899 C 136.759 409.705,139.919 404.573,137.500 398.438 C 137.070 397.347,136.719 396.400,136.719 396.332 C 136.719 396.264,137.554 396.282,138.574 396.372 C 142.542 396.722,145.502 393.882,145.212 390.003 C 144.995 387.105,143.900 385.828,139.904 383.812 C 133.196 380.428,132.315 376.409,135.772 364.943 C 138.473 355.983,148.028 340.302,149.043 343.164 C 155.665 361.842,166.959 373.985,183.577 380.297 L 186.881 381.551 187.896 384.058 C 195.436 402.672,211.012 412.129,229.641 409.405 C 233.916 408.780,233.924 408.785,235.939 413.181 C 240.802 423.790,249.739 430.600,256.060 428.514 C 257.807 427.937,263.414 422.638,264.040 420.971 C 266.935 413.265,257.664 395.798,246.936 388.748 C 243.107 386.232,242.024 386.067,237.606 387.320 C 228.994 389.763,221.352 387.506,218.356 381.634 C 217.152 379.274,217.322 378.306,219.155 377.093 L 220.731 376.050 225.193 376.749 C 236.532 378.527,243.660 376.917,254.704 370.086 C 258.971 367.447,259.374 367.285,259.377 368.220 C 259.380 369.239,260.927 371.655,262.227 372.671 C 267.465 376.763,275.709 374.289,287.450 365.100 C 296.914 357.694,300.637 350.862,297.815 346.079 C 297.372 345.328,296.890 344.116,296.744 343.386 C 296.373 341.535,294.833 339.658,292.663 338.416 C 291.649 337.836,290.755 337.313,290.676 337.253 C 290.596 337.194,291.330 336.084,292.306 334.785 C 308.272 313.546,306.301 283.534,288.086 270.524 C 276.896 262.532,263.885 265.993,263.915 276.953 C 263.930 282.510,267.687 286.205,274.433 287.297 C 288.278 289.538,288.645 312.802,275.089 328.835 L 273.332 330.912 271.257 326.686 C 261.084 305.974,240.325 305.971,228.125 326.681 C 226.013 330.267,226.357 330.228,224.244 327.126 C 221.334 322.858,216.448 318.436,209.752 314.012 L 208.789 313.376 212.127 309.910 C 220.787 300.916,224.405 291.362,222.513 282.485 L 221.902 279.618 223.434 277.589 C 230.151 268.692,228.390 255.954,219.830 251.526 C 218.095 250.628,218.255 251.318,217.206 240.234 C 216.749 235.400,215.771 225.205,215.033 217.578 C 214.295 209.951,213.399 200.681,213.041 196.978 L 212.392 190.244 213.244 187.906 C 217.551 176.094,208.432 165.058,196.779 167.980 M205.068 173.763 C 211.763 177.832,210.194 189.844,202.967 189.844 C 199.947 189.844,198.575 188.155,198.722 184.619 L 198.802 182.714 197.009 182.916 C 196.023 183.027,195.086 183.329,194.927 183.586 C 194.712 183.933,194.224 183.844,193.037 183.238 C 192.157 182.789,191.167 182.422,190.836 182.422 C 190.408 182.422,190.234 182.024,190.234 181.042 C 190.234 174.605,199.208 170.202,205.068 173.763 M191.886 187.756 C 192.472 188.051,193.689 189.269,194.589 190.461 C 197.134 193.832,201.312 195.419,205.292 194.527 C 208.078 193.903,207.487 189.925,212.622 243.847 C 213.214 250.064,213.366 249.622,210.352 250.449 C 209.063 250.803,207.656 251.208,207.226 251.348 C 206.554 251.567,206.208 251.127,204.756 248.199 C 202.727 244.107,200.833 241.094,198.702 238.567 L 197.119 236.690 196.239 227.036 C 194.732 210.488,193.757 200.269,193.501 198.326 C 193.172 195.829,192.224 194.699,190.181 194.373 C 186.081 193.717,184.198 188.162,187.729 187.136 C 189.004 186.765,190.305 186.959,191.886 187.756 M170.304 222.949 C 168.694 225.831,168.312 226.250,165.120 228.626 C 162.620 230.486,162.482 230.670,162.728 231.804 C 163.300 234.444,166.813 234.238,170.393 231.356 C 172.445 229.705,178.781 230.960,185.492 234.347 C 195.783 239.542,204.292 254.001,204.965 267.434 L 205.183 271.783 206.791 272.257 C 223.955 277.321,220.652 299.557,200.760 312.863 C 166.597 335.714,114.306 317.309,115.307 282.786 C 115.449 277.898,115.404 277.822,111.719 276.689 C 106.722 275.154,101.563 275.989,101.563 278.333 C 101.562 279.598,102.224 279.942,105.226 280.237 C 109.296 280.637,110.156 281.219,110.156 283.576 C 110.156 286.596,110.930 291.405,111.794 293.750 C 113.264 297.739,112.632 298.372,107.144 298.415 C 93.607 298.521,86.299 279.902,96.292 270.768 C 100.852 266.601,106.736 266.711,112.870 271.079 C 114.516 272.251,114.763 271.926,115.251 267.948 C 117.377 250.626,126.597 238.534,145.004 228.932 C 152.744 224.893,165.016 220.778,169.471 220.727 L 171.559 220.703 170.304 222.949 M217.015 255.701 C 222.078 258.104,224.141 265.495,221.344 271.212 C 219.475 275.031,219.178 275.099,216.268 272.377 C 214.894 271.091,212.957 269.705,211.964 269.297 C 210.609 268.740,210.159 268.345,210.158 267.715 C 210.157 267.253,209.809 264.841,209.384 262.355 C 208.907 259.569,208.734 257.502,208.932 256.967 C 209.566 255.252,214.456 254.487,217.015 255.701 M184.057 259.362 C 180.896 262.524,181.786 269.887,185.669 272.700 C 190.626 276.291,194.878 270.880,192.745 263.697 C 191.316 258.887,186.790 256.629,184.057 259.362 M149.213 264.628 C 146.256 266.238,145.378 271.753,147.415 275.917 C 150.927 283.096,158.353 281.411,158.348 273.438 C 158.344 267.041,153.451 262.322,149.213 264.628 M279.324 271.723 C 295.220 276.440,302.539 298.429,295.106 319.141 C 292.306 326.943,286.714 334.942,281.641 338.400 C 280.674 339.060,278.944 340.357,277.796 341.284 C 275.121 343.444,275.221 343.488,274.769 339.951 L 274.384 336.933 276.889 334.203 C 294.630 314.871,293.755 284.811,275.388 282.643 C 271.414 282.174,268.750 279.767,268.750 276.647 C 268.750 272.245,273.550 270.010,279.324 271.723 M176.612 275.585 C 173.552 276.540,171.446 279.378,172.401 281.261 C 173.331 283.097,177.870 285.138,177.212 283.424 C 176.374 281.239,176.445 280.991,178.104 280.327 C 181.111 279.124,182.670 279.420,182.963 281.250 C 183.234 282.951,183.729 283.161,185.013 282.120 C 189.653 278.362,183.373 273.476,176.612 275.585 M195.898 291.227 C 192.189 293.283,188.144 294.676,183.594 295.465 C 173.841 297.157,166.930 296.367,156.947 292.418 C 151.753 290.364,150.854 290.264,149.338 291.569 C 145.776 294.636,150.096 305.052,157.142 310.385 C 169.679 319.873,185.557 315.747,191.443 301.473 C 192.899 297.942,192.979 297.855,196.267 296.215 C 200.798 293.955,202.298 291.807,200.558 290.067 C 199.698 289.207,199.415 289.278,195.898 291.227 M160.414 299.643 C 174.826 301.647,183.686 306.987,177.699 310.059 C 170.359 313.825,158.842 309.765,154.922 302.031 C 153.336 298.901,153.759 298.717,160.414 299.643 M257.410 317.748 C 264.731 321.525,269.069 331.081,270.704 347.035 C 271.258 352.442,272.899 353.681,275.276 350.488 C 280.220 343.850,287.833 340.268,291.665 342.779 L 292.757 343.495 290.602 344.213 C 288.096 345.049,286.001 346.658,284.427 348.956 C 281.673 352.976,282.655 353.602,287.315 350.797 C 291.612 348.211,293.582 348.103,293.513 350.458 C 293.425 353.482,288.099 358.934,279.846 364.449 C 269.546 371.332,264.782 371.369,263.729 364.575 C 262.070 353.870,261.660 351.487,261.122 349.414 C 259.061 341.473,253.837 337.608,248.110 339.784 C 242.327 341.981,237.658 346.758,229.828 358.488 C 225.356 365.187,221.299 369.489,216.522 372.599 C 211.954 375.572,211.406 378.021,214.087 383.494 C 218.069 391.626,228.704 395.218,238.615 391.778 C 244.036 389.896,250.624 395.379,256.945 407.031 C 261.912 416.188,260.304 423.605,254.657 417.578 C 250.341 412.971,249.180 416.575,253.336 421.678 C 255.225 423.997,255.199 424.219,253.044 424.219 C 248.144 424.219,241.846 417.297,238.685 408.436 C 236.961 403.603,236.982 403.617,232.163 404.311 C 212.325 407.169,198.102 398.795,192.215 380.791 C 191.205 377.704,191.198 377.697,187.695 376.559 C 170.164 370.864,156.531 355.365,152.553 336.608 C 150.758 328.146,134.467 350.043,130.439 366.332 C 127.301 379.021,128.742 383.792,136.707 387.080 C 140.420 388.613,141.169 389.541,140.061 391.233 C 139.458 392.152,139.211 392.238,137.759 392.032 C 130.094 390.943,129.749 391.286,132.178 397.567 C 135.475 406.097,132.674 408.879,127.187 402.524 C 123.273 397.990,121.816 401.283,125.547 406.228 C 126.862 407.971,126.828 408.181,125.284 407.832 C 115.956 405.729,111.429 390.664,114.774 372.852 C 118.285 354.148,125.787 337.924,136.673 325.488 C 139.203 322.598,138.621 322.666,144.393 324.592 C 161.780 330.393,181.136 328.787,198.458 320.107 L 203.684 317.488 205.650 318.111 C 212.554 320.296,218.400 326.135,223.278 335.716 C 226.563 342.169,227.520 342.509,228.754 337.661 C 232.690 322.193,246.895 312.323,257.410 317.748 M253.711 345.430 C 255.530 347.249,256.260 349.785,255.243 350.755 C 250.643 355.143,235.010 363.265,233.694 361.950 C 233.354 361.609,240.009 352.594,242.702 349.747 C 247.662 344.503,251.342 343.060,253.711 345.430 M257.826 358.674 L 258.301 361.489 256.829 362.725 C 249.319 369.030,240.494 372.463,231.927 372.413 C 225.779 372.377,225.794 372.383,226.930 370.545 C 228.485 368.029,229.689 367.331,232.986 367.032 C 238.727 366.512,243.445 364.522,251.953 359.036 C 257.845 355.236,257.252 355.272,257.826 358.674 " stroke="none" fill="#362110" fill-rule="evenodd"></path><path id="path3" d="M195.949 182.731 C 195.844 182.901,196.361 182.969,197.098 182.883 C 197.835 182.797,198.438 182.658,198.438 182.574 C 198.438 182.280,196.138 182.425,195.949 182.731 M194.711 190.902 C 195.026 191.528,192.710 193.711,191.436 193.989 C 189.763 194.355,189.599 194.468,190.694 194.500 C 193.394 194.580,193.153 193.166,196.239 227.036 L 197.119 236.690 198.702 238.567 C 200.833 241.094,202.727 244.107,204.756 248.199 C 206.208 251.127,206.554 251.567,207.226 251.348 C 207.656 251.208,209.063 250.803,210.352 250.449 C 213.366 249.622,213.214 250.064,212.622 243.847 C 207.487 189.925,208.078 193.903,205.292 194.527 C 201.920 195.283,197.148 193.841,195.326 191.518 C 194.857 190.919,194.580 190.642,194.711 190.902 M163.672 221.732 C 152.250 224.753,140.449 230.523,132.374 237.035 C 122.006 245.397,116.918 254.943,115.047 269.548 C 114.905 270.659,114.459 271.712,113.855 272.363 C 113.325 272.935,112.891 273.545,112.891 273.717 C 112.891 273.890,112.539 274.250,112.109 274.519 C 111.680 274.787,111.328 275.191,111.328 275.417 C 111.328 275.643,111.504 275.719,111.719 275.586 C 111.934 275.453,112.114 275.663,112.119 276.051 C 112.126 276.487,112.714 277.027,113.657 277.462 C 115.489 278.306,115.539 278.478,115.318 283.203 C 114.348 303.989,136.604 322.242,163.672 322.858 L 169.727 322.996 165.194 322.658 C 157.092 322.052,149.640 319.626,143.899 315.725 C 130.243 306.446,127.609 291.092,138.517 284.350 L 139.812 283.550 137.484 280.777 C 120.036 259.997,147.353 235.667,167.259 254.257 L 170.136 256.944 171.770 253.512 C 180.995 234.138,202.034 243.281,203.393 267.254 C 203.604 270.982,203.712 271.445,204.407 271.626 C 205.483 271.908,205.162 264.535,203.909 260.156 C 198.963 242.883,188.832 232.855,173.970 230.525 C 171.955 230.209,171.763 230.254,170.393 231.356 C 166.813 234.238,163.300 234.444,162.728 231.804 C 162.482 230.670,162.620 230.486,165.120 228.626 C 168.312 226.250,168.694 225.831,170.304 222.949 L 171.559 220.703 169.471 220.727 C 168.322 220.740,165.713 221.193,163.672 221.732 M208.679 258.008 C 208.683 258.438,208.820 259.316,208.984 259.961 C 209.252 261.014,209.283 261.033,209.290 260.156 C 209.294 259.619,209.156 258.740,208.984 258.203 C 208.739 257.438,208.673 257.396,208.679 258.008 M272.555 271.652 C 266.097 273.957,268.115 281.785,275.388 282.643 C 293.755 284.811,294.630 314.871,276.889 334.203 L 274.384 336.933 274.769 339.951 C 275.221 343.488,275.121 343.444,277.796 341.284 C 278.944 340.357,280.674 339.060,281.641 338.400 C 295.951 328.644,302.395 302.400,294.516 285.965 C 289.442 275.382,279.769 269.078,272.555 271.652 M215.625 271.607 C 215.625 271.674,216.196 272.245,216.895 272.876 L 218.164 274.023 217.017 272.754 C 215.947 271.571,215.625 271.305,215.625 271.607 M95.313 292.700 C 95.313 292.768,95.884 293.339,96.582 293.970 L 97.852 295.117 96.704 293.848 C 95.635 292.664,95.313 292.399,95.313 292.700 M174.707 296.374 C 175.298 296.463,176.265 296.463,176.855 296.374 C 177.446 296.284,176.963 296.211,175.781 296.211 C 174.600 296.211,174.116 296.284,174.707 296.374 M154.980 299.501 C 155.679 299.588,156.821 299.588,157.520 299.501 C 158.218 299.415,157.646 299.344,156.250 299.344 C 154.854 299.344,154.282 299.415,154.980 299.501 M245.898 316.933 C 238.374 319.421,231.183 328.115,228.754 337.661 C 227.520 342.509,226.563 342.169,223.278 335.716 C 218.400 326.135,212.554 320.296,205.650 318.111 L 203.684 317.488 198.458 320.107 C 181.136 328.787,161.780 330.393,144.393 324.592 C 138.621 322.666,139.203 322.598,136.673 325.488 C 123.318 340.744,114.463 363.179,113.777 383.496 C 113.643 387.449,113.704 389.844,113.938 389.844 C 114.281 389.844,117.339 388.916,118.750 388.384 C 119.072 388.263,119.582 388.114,119.883 388.053 C 120.184 387.992,120.576 387.711,120.756 387.428 C 121.025 387.004,121.083 387.004,121.088 387.430 C 121.092 387.810,121.262 387.778,121.730 387.310 C 122.080 386.960,122.602 386.764,122.889 386.875 C 123.177 386.985,123.524 386.895,123.660 386.675 C 123.796 386.455,124.153 386.369,124.454 386.485 C 124.754 386.600,125.000 386.524,125.000 386.316 C 125.000 386.108,125.605 385.938,126.344 385.938 C 127.083 385.938,127.799 385.759,127.934 385.541 C 128.069 385.322,128.311 385.225,128.473 385.325 C 128.634 385.425,129.335 385.160,130.030 384.738 L 131.294 383.969 130.529 382.996 C 127.752 379.465,128.989 367.854,133.196 357.960 C 139.493 343.150,151.201 330.235,152.553 336.608 C 156.531 355.365,170.164 370.864,187.695 376.559 C 191.198 377.697,191.205 377.704,192.215 380.791 C 198.102 398.795,212.325 407.169,232.163 404.311 C 236.982 403.617,236.961 403.603,238.685 408.436 C 241.846 417.297,248.144 424.219,253.044 424.219 C 255.199 424.219,255.225 423.997,253.336 421.678 C 249.180 416.575,250.341 412.971,254.657 417.578 C 260.304 423.605,261.912 416.188,256.945 407.031 C 250.624 395.379,244.036 389.896,238.615 391.778 C 228.704 395.218,218.069 391.626,214.087 383.494 C 211.406 378.021,211.954 375.572,216.522 372.599 C 221.299 369.489,225.356 365.187,229.828 358.488 C 237.658 346.758,242.327 341.981,248.110 339.784 C 253.837 337.608,259.061 341.473,261.122 349.414 C 261.660 351.487,262.070 353.870,263.729 364.575 C 264.782 371.369,269.546 371.332,279.846 364.449 C 288.099 358.934,293.425 353.482,293.513 350.458 C 293.582 348.103,291.612 348.211,287.315 350.797 C 282.655 353.602,281.673 352.976,284.427 348.956 C 286.001 346.658,288.096 345.049,290.602 344.213 L 292.757 343.495 291.665 342.779 C 287.833 340.268,280.220 343.850,275.276 350.488 C 272.899 353.681,271.258 352.442,270.704 347.035 C 269.069 331.081,264.731 321.525,257.410 317.748 C 254.869 316.436,248.717 316.001,245.898 316.933 M205.018 326.172 C 224.850 333.202,227.463 360.441,208.886 366.504 C 190.842 372.393,170.055 351.665,177.541 335.247 C 181.260 327.089,194.900 322.585,205.018 326.172 M251.953 359.036 C 243.445 364.522,238.727 366.512,232.986 367.032 C 229.689 367.331,228.485 368.029,226.930 370.545 C 225.794 372.383,225.779 372.377,231.927 372.413 C 240.494 372.463,249.319 369.030,256.829 362.725 L 258.301 361.489 257.826 358.674 C 257.252 355.272,257.845 355.236,251.953 359.036 M132.910 391.285 C 133.286 391.383,133.901 391.383,134.277 391.285 C 134.653 391.187,134.346 391.106,133.594 391.106 C 132.842 391.106,132.534 391.187,132.910 391.285 " stroke="none" fill="#c66c1b" fill-rule="evenodd"></path><path id="path4" d="M77.455 57.227 C 77.458 58.301,77.534 58.694,77.624 58.100 C 77.714 57.506,77.711 56.627,77.619 56.147 C 77.526 55.667,77.453 56.152,77.455 57.227 M94.043 74.885 C 94.526 74.978,95.317 74.978,95.801 74.885 C 96.284 74.792,95.889 74.716,94.922 74.716 C 93.955 74.716,93.560 74.792,94.043 74.885 M314.552 75.977 C 314.556 76.836,314.636 77.142,314.729 76.656 C 314.823 76.170,314.819 75.467,314.722 75.093 C 314.624 74.720,314.547 75.117,314.552 75.977 M281.818 91.504 L 280.273 93.164 281.934 91.620 C 283.478 90.184,283.773 89.844,283.478 89.844 C 283.414 89.844,282.667 90.591,281.818 91.504 M279.478 99.316 L 277.539 101.367 279.590 99.429 C 281.495 97.628,281.820 97.266,281.528 97.266 C 281.466 97.266,280.544 98.188,279.478 99.316 M267.957 105.762 L 265.430 108.398 268.066 105.871 C 269.517 104.480,270.703 103.294,270.703 103.234 C 270.703 102.946,270.305 103.313,267.957 105.762 M266.193 112.988 L 264.648 114.648 266.309 113.104 C 267.853 111.668,268.148 111.328,267.853 111.328 C 267.789 111.328,267.042 112.075,266.193 112.988 M60.664 120.313 C 60.664 121.494,60.737 121.978,60.827 121.387 C 60.916 120.796,60.916 119.829,60.827 119.238 C 60.737 118.647,60.664 119.131,60.664 120.313 M254.791 118.953 C 254.955 119.134,254.614 119.777,254.034 120.383 C 253.454 120.989,253.067 121.484,253.174 121.484 C 253.842 121.484,255.484 119.198,255.012 118.926 C 254.726 118.760,254.626 118.773,254.791 118.953 M252.332 127.637 L 249.805 130.273 252.441 127.746 C 253.892 126.355,255.078 125.169,255.078 125.109 C 255.078 124.821,254.680 125.188,252.332 127.637 M242.176 132.715 L 239.648 135.352 242.285 132.824 C 243.735 131.434,244.922 130.247,244.922 130.187 C 244.922 129.900,244.524 130.266,242.176 132.715 M335.547 130.591 C 335.547 130.658,336.118 131.229,336.816 131.861 L 338.086 133.008 336.939 131.738 C 335.869 130.555,335.547 130.289,335.547 130.591 M231.250 149.414 C 230.301 150.381,229.613 151.172,229.720 151.172 C 229.828 151.172,230.692 150.381,231.641 149.414 C 232.589 148.447,233.278 147.656,233.170 147.656 C 233.063 147.656,232.199 148.447,231.250 149.414 M223.999 151.660 L 222.852 152.930 224.121 151.782 C 224.819 151.151,225.391 150.580,225.391 150.513 C 225.391 150.211,225.068 150.477,223.999 151.660 M311.328 156.372 C 311.328 156.439,311.899 157.011,312.598 157.642 L 313.867 158.789 312.720 157.520 C 311.650 156.336,311.328 156.070,311.328 156.372 M218.935 162.207 L 216.211 165.039 219.043 162.315 C 220.601 160.817,221.875 159.543,221.875 159.483 C 221.875 159.197,221.465 159.577,218.935 162.207 M127.734 160.669 C 127.734 160.736,128.306 161.308,129.004 161.939 L 130.273 163.086 129.126 161.816 C 128.057 160.633,127.734 160.367,127.734 160.669 M209.766 166.211 C 208.817 167.178,208.128 167.969,208.236 167.969 C 208.343 167.969,209.207 167.178,210.156 166.211 C 211.105 165.244,211.794 164.453,211.686 164.453 C 211.579 164.453,210.714 165.244,209.766 166.211 M247.266 215.357 C 247.266 215.424,247.837 215.995,248.535 216.626 L 249.805 217.773 248.657 216.504 C 247.588 215.321,247.266 215.055,247.266 215.357 M211.863 449.219 C 211.863 451.475,211.928 452.397,212.007 451.270 C 212.086 450.142,212.086 448.296,212.007 447.168 C 211.928 446.040,211.863 446.963,211.863 449.219 M196.192 450.977 C 196.197 451.836,196.277 452.142,196.370 451.656 C 196.463 451.170,196.460 450.467,196.362 450.093 C 196.264 449.720,196.188 450.117,196.192 450.977 M325.688 456.136 C 326.174 456.229,326.877 456.226,327.251 456.128 C 327.624 456.030,327.227 455.954,326.367 455.958 C 325.508 455.962,325.202 456.042,325.688 456.136 M57.997 487.109 C 57.997 502.041,58.046 508.149,58.105 500.684 C 58.165 493.218,58.165 481.001,58.105 473.535 C 58.046 466.069,57.997 472.178,57.997 487.109 M184.516 463.672 C 184.516 465.713,184.582 466.548,184.662 465.527 C 184.743 464.507,184.743 462.837,184.662 461.816 C 184.582 460.796,184.516 461.631,184.516 463.672 M131.421 462.598 L 130.273 463.867 131.543 462.720 C 132.726 461.650,132.992 461.328,132.690 461.328 C 132.623 461.328,132.052 461.899,131.421 462.598 M278.906 462.232 C 278.906 462.299,279.478 462.870,280.176 463.501 L 281.445 464.648 280.298 463.379 C 279.229 462.196,278.906 461.930,278.906 462.232 M151.862 467.861 C 152.565 467.948,153.619 467.946,154.206 467.857 C 154.793 467.768,154.219 467.697,152.930 467.699 C 151.641 467.701,151.160 467.774,151.862 467.861 M211.850 474.219 C 211.850 475.830,211.919 476.489,212.003 475.684 C 212.088 474.878,212.088 473.560,212.003 472.754 C 211.919 471.948,211.850 472.607,211.850 474.219 M196.215 476.758 C 196.217 478.047,196.290 478.527,196.377 477.825 C 196.464 477.123,196.462 476.068,196.373 475.481 C 196.284 474.894,196.213 475.469,196.215 476.758 M178.614 477.148 C 178.618 478.008,178.698 478.313,178.792 477.827 C 178.885 477.342,178.882 476.638,178.784 476.265 C 178.686 475.892,178.610 476.289,178.614 477.148 M211.857 481.055 C 211.856 482.988,211.922 483.829,212.004 482.922 C 212.086 482.015,212.087 480.433,212.006 479.406 C 211.926 478.379,211.859 479.121,211.857 481.055 M346.664 496.484 C 346.664 506.045,346.715 509.956,346.777 505.176 C 346.839 500.396,346.839 492.573,346.777 487.793 C 346.715 483.013,346.664 486.924,346.664 496.484 M330.648 497.070 C 330.648 506.523,330.699 510.335,330.761 505.540 C 330.824 500.745,330.824 493.011,330.761 488.352 C 330.699 483.694,330.648 487.617,330.648 497.070 M97.024 488.867 C 97.025 491.445,97.088 492.449,97.165 491.098 C 97.241 489.747,97.240 487.637,97.163 486.410 C 97.086 485.184,97.023 486.289,97.024 488.867 M229.425 486.914 C 229.427 488.418,229.497 488.985,229.582 488.175 C 229.667 487.364,229.665 486.134,229.579 485.441 C 229.493 484.747,229.423 485.410,229.425 486.914 M211.871 489.648 C 211.871 492.441,211.933 493.533,212.009 492.074 C 212.084 490.614,212.084 488.329,212.008 486.995 C 211.932 485.662,211.870 486.855,211.871 489.648 M96.974 498.242 C 96.978 499.102,97.058 499.407,97.151 498.921 C 97.245 498.435,97.241 497.732,97.143 497.359 C 97.046 496.985,96.969 497.383,96.974 498.242 M96.966 501.172 C 96.966 501.924,97.046 502.231,97.144 501.855 C 97.243 501.479,97.243 500.864,97.144 500.488 C 97.046 500.112,96.966 500.420,96.966 501.172 M258.891 504.573 C 259.377 504.667,260.080 504.663,260.454 504.565 C 260.827 504.467,260.430 504.391,259.570 504.395 C 258.711 504.400,258.405 504.480,258.891 504.573 M163.402 512.305 C 163.404 513.594,163.477 514.074,163.564 513.372 C 163.651 512.670,163.649 511.615,163.560 511.028 C 163.471 510.441,163.400 511.016,163.402 512.305 M142.881 517.865 C 143.800 517.947,145.206 517.946,146.006 517.862 C 146.806 517.778,146.055 517.711,144.336 517.712 C 142.617 517.713,141.963 517.782,142.881 517.865 " stroke="none" fill="#7ca3bd" fill-rule="evenodd"></path></g></svg>