<svg id="svg" version="1.1" xmlns="http://www.w3.org/2000/svg" xmlns:xlink="http://www.w3.org/1999/xlink" width="400" height="400" viewBox="0, 0, 400,400"><g id="svgg"><path id="path0" d="M0.000 200.000 L 0.000 400.000 200.000 400.000 L 400.000 400.000 400.000 200.000 L 400.000 0.000 200.000 0.000 L 0.000 0.000 0.000 200.000 M114.841 28.933 C 121.143 29.956,125.261 33.863,126.569 40.062 L 126.986 42.038 134.489 43.709 C 138.616 44.628,147.617 46.672,154.492 48.251 C 179.527 54.003,189.988 56.261,190.239 55.966 C 190.380 55.800,190.819 54.785,191.215 53.711 C 194.031 46.061,206.312 42.645,212.366 47.827 C 215.188 50.243,217.578 55.034,217.578 58.274 C 217.578 58.880,217.715 59.375,217.883 59.375 C 218.050 59.375,223.104 60.071,229.113 60.922 C 244.614 63.117,266.390 66.016,267.379 66.016 C 268.027 66.016,268.421 65.521,269.125 63.821 C 274.131 51.744,291.405 50.953,295.288 62.622 C 297.602 69.575,295.792 76.000,290.429 79.871 C 287.734 81.817,287.402 79.097,293.417 104.348 L 294.220 107.719 297.403 107.888 C 309.371 108.526,314.908 122.584,306.863 131.907 C 299.119 140.882,282.710 134.312,282.710 122.237 L 282.710 119.232 274.656 118.985 C 270.226 118.849,264.448 118.631,261.816 118.501 L 257.031 118.265 257.031 119.274 C 257.031 121.113,255.451 124.545,253.714 126.476 C 245.974 135.085,230.931 131.182,229.122 120.095 L 228.863 118.510 218.631 118.663 C 209.848 118.795,208.343 118.904,208.008 119.432 C 207.793 119.771,207.289 120.393,206.887 120.813 C 206.029 121.711,206.264 123.570,208.775 135.742 C 209.542 139.460,211.064 150.959,211.531 156.567 C 211.848 160.367,212.195 164.180,212.303 165.039 C 212.410 165.898,212.585 167.480,212.692 168.555 C 212.858 170.236,213.089 170.671,214.351 171.680 C 217.732 174.382,218.755 176.000,219.787 180.273 C 221.130 185.838,220.599 188.726,217.345 193.555 L 216.029 195.508 216.581 197.590 C 218.332 204.190,214.390 214.523,207.924 220.286 L 205.800 222.180 210.106 225.950 C 212.474 228.023,215.315 230.855,216.419 232.243 C 218.818 235.257,219.254 235.335,220.159 232.910 C 226.885 214.891,248.951 213.835,256.860 231.152 C 258.203 234.093,257.999 234.071,260.592 231.543 C 265.984 226.285,268.950 215.133,266.744 208.412 C 265.281 203.956,260.410 200.143,257.208 200.946 C 256.681 201.079,256.250 201.027,256.250 200.831 C 256.250 200.635,255.810 200.365,255.272 200.230 C 253.360 199.750,250.918 196.890,250.424 194.552 C 247.910 182.640,263.363 179.209,273.895 189.340 C 286.320 201.293,286.787 219.695,275.123 237.760 C 273.398 240.432,273.367 240.576,274.272 241.607 C 275.191 242.654,276.172 245.054,276.172 246.256 C 276.172 246.789,276.592 247.679,277.106 248.233 C 280.094 251.457,278.340 257.170,272.964 261.725 C 271.398 263.052,269.590 264.588,268.945 265.138 C 261.368 271.611,251.779 274.454,249.460 270.914 C 249.128 270.408,248.419 269.520,247.884 268.943 C 246.558 267.513,245.963 265.516,246.264 263.509 C 246.937 259.018,242.749 247.970,240.280 247.727 C 237.756 247.479,235.318 249.661,228.572 258.203 C 225.399 262.221,218.214 269.401,215.510 271.256 C 213.035 272.955,213.051 272.913,213.854 275.613 C 214.311 277.150,214.910 277.964,216.820 279.645 L 219.213 281.751 222.230 281.518 C 223.889 281.390,225.730 281.102,226.320 280.877 C 235.498 277.388,254.190 296.089,252.189 306.758 C 251.518 310.336,247.274 313.941,244.162 313.577 C 243.419 313.491,242.308 313.671,241.694 313.977 C 241.079 314.284,240.191 314.439,239.722 314.322 C 239.252 314.205,238.060 313.915,237.073 313.677 C 234.753 313.117,232.986 311.292,230.830 307.227 C 229.918 305.508,228.569 303.361,227.831 302.455 L 226.491 300.808 221.299 300.820 C 205.740 300.856,191.607 291.824,189.453 280.470 C 188.947 277.798,188.556 277.412,185.915 276.976 C 178.033 275.672,168.394 269.312,163.854 262.418 C 162.822 260.852,161.515 258.867,160.949 258.008 C 159.595 255.953,157.236 250.336,156.643 247.754 C 155.953 244.750,155.481 245.077,151.785 251.121 C 143.926 263.972,141.809 275.806,146.765 279.191 C 151.610 282.500,152.193 287.386,148.070 290.140 C 146.815 290.979,146.733 291.162,146.827 292.929 C 147.065 297.405,141.895 302.641,139.015 300.842 C 138.631 300.603,138.235 300.540,138.134 300.704 C 137.790 301.260,135.430 301.196,133.579 300.581 C 130.219 299.465,125.941 294.254,125.032 290.170 C 124.825 289.239,124.540 287.949,124.399 287.305 C 123.793 284.531,123.765 274.389,124.354 270.703 C 127.020 254.013,129.014 249.534,141.309 232.634 C 144.002 228.932,144.099 228.679,142.970 228.321 C 141.347 227.805,133.739 221.352,131.820 218.862 L 129.851 216.308 125.633 216.309 C 115.988 216.310,107.624 211.139,106.221 204.305 C 106.065 203.549,105.747 201.996,105.514 200.854 C 105.010 198.395,105.526 192.283,106.412 190.209 C 109.301 183.445,118.440 180.095,124.024 183.753 C 124.807 184.267,124.856 184.196,125.295 181.890 C 126.454 175.794,129.272 168.844,132.444 164.258 C 133.986 162.027,140.625 155.416,140.625 156.110 C 140.625 156.216,141.372 155.706,142.285 154.977 C 145.335 152.542,153.394 147.851,156.498 146.705 C 157.328 146.399,158.975 145.769,160.156 145.307 C 163.384 144.043,174.935 140.234,175.539 140.234 C 177.978 140.234,178.885 144.299,177.181 147.593 L 176.542 148.828 178.017 148.850 C 179.777 148.876,181.485 149.562,186.064 152.082 C 190.594 154.575,190.741 154.466,190.453 148.861 C 190.163 143.229,189.885 140.430,189.364 137.891 C 188.852 135.393,188.915 135.848,188.503 131.738 C 188.223 128.944,188.082 128.516,187.437 128.516 C 182.976 128.516,180.221 122.406,182.417 117.383 C 182.698 116.738,182.947 115.156,182.968 113.867 C 182.991 112.546,183.284 110.987,183.642 110.294 L 184.276 109.064 180.993 107.601 C 179.187 106.796,174.360 104.876,170.265 103.332 L 162.821 100.527 160.743 102.555 C 157.152 106.061,151.945 107.538,147.502 106.311 C 146.135 105.934,145.917 105.978,145.294 106.755 C 144.913 107.229,140.116 113.312,134.633 120.272 L 124.664 132.927 125.791 134.334 C 134.786 145.574,123.040 162.259,109.876 156.942 C 99.576 152.781,97.755 137.347,106.917 131.859 L 108.835 130.710 106.557 123.070 C 105.305 118.868,104.110 114.806,103.904 114.044 L 103.528 112.658 100.962 112.821 C 92.178 113.380,86.056 108.500,85.293 100.331 C 84.482 91.648,90.478 84.976,99.085 84.984 L 102.662 84.987 103.110 83.490 C 103.357 82.666,105.570 76.611,108.029 70.034 C 110.488 63.457,112.500 58.017,112.500 57.944 C 112.500 57.872,111.817 57.813,110.982 57.813 C 102.622 57.812,95.666 46.587,98.822 38.185 C 101.232 31.766,108.046 27.831,114.841 28.933 M126.430 46.387 C 126.332 46.548,125.790 48.059,125.225 49.745 L 124.199 52.811 125.869 55.052 C 126.787 56.286,131.382 62.123,136.078 68.025 L 144.618 78.756 146.821 78.009 C 150.370 76.805,154.260 77.197,158.203 79.156 C 159.919 80.009,161.457 80.576,161.619 80.416 C 161.781 80.256,167.822 76.730,175.042 72.582 C 191.673 63.026,190.015 64.224,189.682 62.001 C 189.357 59.832,191.177 60.455,174.023 56.640 C 167.148 55.110,158.184 53.090,154.102 52.150 C 130.750 46.770,126.709 45.928,126.430 46.387 M119.037 56.445 L 116.785 57.617 115.274 61.523 C 114.442 63.672,112.961 67.627,111.982 70.313 C 111.003 72.998,109.259 77.764,108.106 80.904 L 106.009 86.612 107.848 88.358 C 110.053 90.452,111.680 93.501,111.990 96.124 C 112.116 97.182,112.251 98.047,112.292 98.047 C 112.500 98.047,133.302 93.720,135.059 93.312 L 137.109 92.835 137.109 91.019 C 137.109 88.283,138.117 85.434,139.868 83.219 C 140.787 82.057,141.324 81.031,141.161 80.752 C 140.857 80.230,130.527 67.104,126.952 62.695 C 125.733 61.191,123.960 58.906,123.012 57.617 L 121.289 55.273 119.037 56.445 M217.574 63.356 C 217.567 64.325,215.725 67.828,214.473 69.254 L 213.218 70.683 226.115 86.978 L 239.012 103.272 243.237 103.296 C 246.489 103.315,247.749 103.478,248.711 104.004 L 249.960 104.687 255.018 98.535 C 257.799 95.151,262.615 89.291,265.721 85.513 L 271.367 78.643 270.276 76.529 C 269.676 75.366,268.970 73.483,268.706 72.345 C 268.109 69.765,269.099 70.134,259.541 68.938 C 247.347 67.413,218.347 63.319,217.936 63.066 C 217.739 62.944,217.576 63.075,217.574 63.356 M177.107 75.829 L 163.393 83.684 163.963 85.628 C 164.366 87.002,164.493 88.938,164.396 92.221 L 164.258 96.869 166.406 97.616 C 170.476 99.031,180.672 102.771,184.193 104.141 L 187.722 105.513 189.569 104.722 C 190.584 104.286,192.034 103.888,192.791 103.837 C 194.363 103.732,194.161 104.256,195.316 97.266 C 196.508 90.047,199.272 74.841,199.441 74.566 C 199.522 74.435,198.848 73.996,197.943 73.590 C 197.038 73.184,195.132 71.753,193.707 70.410 C 192.282 69.067,191.049 67.970,190.968 67.971 C 190.887 67.972,184.649 71.508,177.107 75.829 M208.866 73.672 C 208.265 73.998,206.742 74.446,205.483 74.668 L 203.193 75.071 202.587 78.454 C 202.254 80.314,201.194 86.230,200.232 91.602 C 197.896 104.640,197.982 103.906,198.784 103.906 C 199.152 103.906,199.620 104.061,199.824 104.250 C 200.028 104.439,200.856 104.804,201.663 105.062 C 205.258 106.211,207.631 109.481,208.296 114.203 C 208.393 114.889,208.897 114.926,217.383 114.871 C 229.573 114.792,228.907 114.950,230.272 111.816 C 231.013 110.115,232.083 108.572,233.463 107.213 L 235.539 105.170 226.062 93.112 C 220.849 86.481,215.182 79.266,213.468 77.079 C 211.754 74.892,210.264 73.097,210.156 73.091 C 210.049 73.084,209.468 73.345,208.866 73.672 M269.336 87.019 C 266.973 89.950,262.354 95.644,259.072 99.673 L 253.106 106.999 254.444 108.753 C 255.181 109.718,256.073 111.379,256.427 112.444 L 257.070 114.381 261.055 114.626 C 263.246 114.761,269.258 115.016,274.414 115.193 L 283.789 115.514 284.551 114.496 C 285.543 113.170,288.188 110.562,289.547 109.570 L 290.617 108.789 287.572 96.094 L 284.528 83.398 280.838 83.174 C 278.539 83.034,276.677 82.703,275.898 82.295 C 273.982 81.292,273.917 81.339,269.336 87.019 M131.055 98.078 C 128.047 98.698,122.590 99.845,118.928 100.628 L 112.271 102.052 111.819 103.955 C 111.326 106.028,109.562 108.864,108.001 110.092 L 107.014 110.868 108.572 116.078 C 109.428 118.944,110.629 123.047,111.241 125.195 L 112.353 129.102 115.063 129.376 C 116.554 129.527,118.543 129.922,119.483 130.255 C 120.423 130.587,121.239 130.859,121.296 130.859 C 121.423 130.859,124.806 126.590,134.781 113.840 L 142.443 104.047 140.569 102.008 C 139.538 100.887,138.486 99.273,138.231 98.422 C 137.684 96.599,138.138 96.620,131.055 98.078 M279.545 305.193 L 280.770 305.833 281.050 316.881 L 281.331 327.930 283.088 326.283 C 288.790 320.940,301.031 321.047,306.361 326.486 C 310.947 331.167,311.307 333.088,311.319 352.965 L 311.328 369.406 310.254 369.908 C 308.458 370.747,304.305 370.874,301.864 370.165 C 298.726 369.253,298.761 369.426,298.462 353.516 C 298.182 338.564,297.953 337.242,295.248 334.967 C 292.242 332.437,286.719 332.750,284.101 335.598 C 281.891 338.002,281.649 339.812,281.310 356.445 L 281.055 368.945 279.492 369.714 C 277.740 370.576,271.757 370.758,269.888 370.006 L 268.878 369.599 268.616 342.319 C 268.473 327.315,268.242 312.821,268.105 310.110 L 267.855 305.181 268.986 304.746 C 270.686 304.091,278.031 304.402,279.545 305.193 M203.689 312.060 C 205.659 312.931,205.848 313.600,205.855 319.727 L 205.859 323.633 210.721 323.633 C 216.842 323.633,217.532 324.366,216.924 330.219 C 216.625 333.094,215.871 333.491,210.016 333.849 L 205.962 334.097 205.718 336.677 C 205.584 338.097,205.474 342.773,205.474 347.070 C 205.473 359.061,205.846 359.766,212.209 359.766 C 217.174 359.766,217.188 359.777,217.188 363.920 C 217.188 369.344,216.606 369.820,209.510 370.199 C 201.052 370.652,195.481 367.300,193.469 360.547 C 192.927 358.727,192.842 356.532,192.910 346.191 L 192.992 333.984 189.674 333.984 C 185.666 333.984,185.547 333.852,185.547 329.420 C 185.549 324.284,187.575 322.348,192.090 323.169 C 192.961 323.328,192.969 323.288,192.969 318.683 C 192.969 313.191,193.472 311.490,195.183 311.196 C 197.271 310.837,202.014 311.318,203.689 312.060 M118.855 322.840 C 123.022 323.723,125.916 325.478,127.985 328.378 C 131.640 333.500,131.980 336.376,131.446 357.727 L 131.159 369.219 129.850 369.766 C 127.216 370.866,121.224 370.243,119.564 368.697 C 118.770 367.957,118.750 367.608,118.740 354.575 C 118.727 335.650,117.731 333.105,110.336 333.105 C 102.841 333.105,101.598 336.184,101.233 355.664 L 100.977 369.336 99.463 370.075 C 97.280 371.141,93.166 371.352,90.677 370.525 L 88.672 369.859 88.672 347.440 L 88.672 325.020 89.941 324.355 C 91.636 323.468,96.943 323.198,99.023 323.892 C 100.578 324.412,100.587 324.425,100.781 326.758 L 100.977 329.102 101.862 327.678 C 104.635 323.218,111.465 321.274,118.855 322.840 M171.484 323.775 C 179.248 326.469,181.403 330.415,181.430 341.992 C 181.448 349.838,180.855 369.251,180.588 369.531 C 180.060 370.087,173.122 369.620,171.289 368.905 C 169.397 368.168,169.332 368.090,169.213 366.432 L 169.090 364.721 168.359 365.923 C 162.880 374.931,144.672 373.344,139.793 363.433 C 134.513 352.707,142.628 343.704,158.398 342.792 C 165.503 342.381,167.259 341.719,168.373 339.030 C 171.290 331.987,157.076 329.166,153.516 336.082 L 152.539 337.978 147.656 337.738 C 140.495 337.386,140.492 337.386,140.734 335.242 C 141.769 326.059,159.263 319.536,171.484 323.775 M250.346 323.787 C 255.227 325.482,259.659 329.205,261.730 333.348 C 263.699 337.290,263.013 337.802,255.243 338.184 L 251.307 338.378 250.800 337.156 C 248.763 332.238,240.427 331.265,235.616 335.383 C 230.481 339.778,230.242 353.115,235.213 357.895 C 239.969 362.470,249.036 360.545,251.224 354.496 L 251.757 353.022 255.245 353.269 C 263.944 353.887,264.244 354.073,262.889 358.013 C 258.805 369.884,243.724 375.391,231.402 369.511 C 215.283 361.818,214.769 333.152,230.612 325.389 C 236.700 322.406,244.537 321.770,250.346 323.787 M161.328 350.645 C 153.216 351.995,151.172 353.233,151.172 356.798 C 151.172 360.926,155.553 362.740,161.719 361.165 C 166.654 359.904,168.469 357.721,168.972 352.441 L 169.242 349.609 168.117 349.656 C 167.498 349.681,164.443 350.126,161.328 350.645 " stroke="none" fill="#2b76ab" fill-rule="evenodd"></path><path id="path1" d="M107.316 29.829 C 99.150 33.269,95.910 41.656,99.792 49.299 C 102.616 54.860,105.670 57.266,110.453 57.700 L 112.747 57.908 108.523 69.091 C 106.200 75.241,103.937 81.360,103.494 82.689 L 102.688 85.104 99.489 85.063 C 91.131 84.956,85.460 90.586,85.424 99.023 C 85.389 107.409,90.150 112.066,99.188 112.487 C 103.530 112.690,103.656 112.721,103.941 113.672 C 104.101 114.209,105.239 118.076,106.470 122.266 C 107.701 126.455,108.778 130.076,108.865 130.312 C 108.952 130.548,108.000 131.392,106.750 132.189 C 99.861 136.578,99.283 148.599,105.692 154.239 C 118.203 165.252,135.645 148.891,126.167 135.033 L 124.613 132.761 130.358 125.462 C 136.218 118.018,136.785 117.302,142.578 110.034 C 145.892 105.876,145.901 105.869,147.266 106.157 C 152.553 107.272,157.384 105.893,160.734 102.312 L 162.582 100.336 168.108 102.375 C 171.146 103.496,176.061 105.436,179.028 106.685 L 184.423 108.957 185.668 107.539 C 187.289 105.693,187.249 105.464,185.156 104.635 C 183.644 104.036,165.822 97.489,164.605 97.085 C 164.307 96.986,164.225 95.500,164.343 92.318 C 164.473 88.822,164.366 87.219,163.903 85.742 C 163.156 83.362,161.998 84.312,173.949 77.507 C 179.146 74.548,185.121 71.128,187.226 69.907 L 191.054 67.688 193.476 70.098 C 194.808 71.423,196.744 72.914,197.778 73.410 C 199.011 74.002,199.586 74.497,199.451 74.850 C 199.302 75.237,195.590 96.130,194.397 103.296 C 194.349 103.580,197.628 103.659,197.920 103.380 C 198.000 103.303,201.279 85.379,202.146 80.273 C 203.176 74.215,202.895 74.744,205.238 74.469 C 206.379 74.335,207.992 73.941,208.824 73.593 L 210.336 72.961 211.320 74.244 C 211.862 74.949,214.480 78.264,217.138 81.611 C 219.796 84.957,225.047 91.623,228.808 96.422 L 235.645 105.150 233.702 107.165 C 231.553 109.393,230.411 111.168,229.705 113.379 L 229.236 114.844 221.942 114.846 C 217.931 114.847,213.198 114.961,211.426 115.099 L 208.203 115.350 208.203 117.058 L 208.203 118.765 218.532 118.501 L 228.860 118.236 229.093 119.372 C 232.233 134.730,254.797 135.042,256.892 119.756 C 257.085 118.348,257.278 117.989,257.769 118.126 C 258.115 118.223,262.266 118.405,266.992 118.532 C 271.719 118.658,277.256 118.862,279.297 118.985 L 283.008 119.209 282.878 121.697 C 282.235 133.964,298.189 140.736,306.652 131.788 C 314.998 122.963,309.311 108.619,297.179 107.894 C 294.834 107.754,294.121 107.572,293.978 107.079 C 293.785 106.414,288.375 83.583,288.087 82.219 C 287.962 81.626,288.346 81.161,289.633 80.347 C 295.411 76.692,297.689 68.926,294.993 62.078 C 290.594 50.908,274.452 52.021,269.300 63.849 C 268.278 66.194,268.087 66.410,267.193 66.230 C 266.653 66.122,262.168 65.503,257.227 64.856 C 252.285 64.209,244.375 63.153,239.648 62.509 C 234.922 61.866,228.199 60.952,224.709 60.479 C 217.189 59.459,217.650 59.679,217.200 56.913 C 216.059 49.904,212.063 46.052,205.642 45.771 C 198.362 45.453,193.194 48.518,191.102 54.395 C 190.254 56.776,192.745 57.151,160.742 49.820 C 153.867 48.246,143.384 45.852,137.446 44.501 L 126.649 42.045 126.413 40.323 C 125.242 31.776,115.457 26.399,107.316 29.829 M142.773 49.462 C 160.075 53.394,171.198 55.898,181.055 58.078 C 190.510 60.170,189.752 59.812,189.895 62.256 L 190.007 64.161 183.382 67.953 C 179.739 70.038,173.190 73.796,168.830 76.304 L 160.901 80.863 159.455 79.874 C 155.982 77.501,150.725 76.771,146.875 78.125 L 144.727 78.881 143.989 78.015 C 142.814 76.634,128.198 58.310,125.900 55.336 C 124.518 53.546,123.936 52.488,124.175 52.197 C 124.373 51.955,124.837 50.703,125.206 49.414 C 126.256 45.748,126.280 45.723,128.215 46.157 C 129.132 46.363,135.684 47.850,142.773 49.462 M121.604 55.566 C 121.715 55.835,126.276 61.680,131.739 68.555 L 141.672 81.055 140.185 83.025 C 138.233 85.614,137.589 87.239,137.266 90.385 C 137.040 92.593,136.877 93.010,136.176 93.171 C 129.393 94.729,113.371 98.047,112.628 98.047 C 112.343 98.047,112.109 97.714,112.109 97.307 C 112.109 94.833,110.436 91.263,108.197 88.961 L 105.906 86.606 109.396 76.994 C 116.169 58.337,116.437 57.731,118.289 56.823 C 119.180 56.386,120.123 55.814,120.384 55.553 C 120.990 54.948,121.348 54.951,121.604 55.566 M228.516 64.628 C 233.779 65.379,244.238 66.789,251.758 67.761 C 259.277 68.733,266.063 69.628,266.838 69.750 C 268.167 69.959,268.272 70.085,268.706 71.997 C 268.958 73.112,269.672 75.066,270.292 76.340 L 271.419 78.657 265.513 85.910 C 259.211 93.650,250.830 103.906,250.401 104.402 C 250.258 104.567,249.362 104.424,248.410 104.084 C 246.428 103.375,242.145 103.080,240.537 103.541 C 239.230 103.916,240.760 105.668,224.831 85.547 C 213.645 71.416,212.969 70.472,213.642 69.922 C 214.855 68.928,216.731 66.035,217.012 64.723 C 217.374 63.036,217.536 62.826,218.295 63.061 C 218.652 63.171,223.252 63.877,228.516 64.628 M277.148 82.485 C 278.503 82.988,279.930 83.180,281.806 83.112 L 284.511 83.014 287.559 95.511 C 291.149 110.230,291.040 108.856,288.751 110.497 C 287.132 111.658,285.229 113.691,284.413 115.132 C 284.113 115.663,259.175 115.014,257.593 114.433 C 257.105 114.254,256.602 113.521,256.319 112.575 C 256.061 111.715,255.231 110.111,254.473 109.010 C 253.285 107.283,253.165 106.911,253.599 106.297 C 257.022 101.448,274.096 81.275,274.592 81.494 C 274.924 81.640,276.074 82.086,277.148 82.485 M138.448 98.605 C 138.963 99.771,140.092 101.492,140.956 102.429 L 142.527 104.133 131.963 117.617 L 121.399 131.100 119.196 130.348 C 117.984 129.935,115.920 129.507,114.610 129.398 L 112.227 129.199 111.163 125.440 C 110.578 123.372,109.388 119.267,108.518 116.318 L 106.935 110.957 108.888 108.820 C 110.311 107.263,111.030 106.050,111.541 104.343 L 112.243 102.002 115.203 101.341 C 116.832 100.978,122.471 99.757,127.734 98.628 C 132.998 97.499,137.351 96.555,137.407 96.530 C 137.464 96.505,137.932 97.439,138.448 98.605 M191.992 116.672 C 192.422 116.791,192.919 117.087,193.096 117.330 C 193.309 117.623,193.365 117.575,193.261 117.188 C 193.174 116.865,192.677 116.569,192.157 116.529 C 191.411 116.473,191.376 116.503,191.992 116.672 M196.875 117.872 C 196.875 118.509,198.473 119.537,199.403 119.498 C 199.962 119.474,199.850 119.361,199.024 119.115 C 198.380 118.923,197.633 118.465,197.364 118.097 C 197.095 117.730,196.875 117.628,196.875 117.872 M180.030 165.656 C 176.563 167.484,174.007 169.798,172.014 172.914 L 170.593 175.134 169.823 173.602 C 165.051 164.113,147.816 167.234,142.050 178.631 C 139.596 183.481,141.439 191.116,146.121 195.496 L 148.120 197.366 145.573 199.665 C 137.762 206.715,138.153 214.964,146.599 221.313 C 157.651 229.621,170.321 232.306,183.432 229.118 C 204.975 223.881,218.276 206.031,210.166 193.242 C 208.748 191.007,204.383 188.162,201.367 187.508 C 200.243 187.265,200.199 187.177,200.295 185.371 C 200.359 184.175,200.206 183.329,199.876 183.053 C 199.590 182.813,199.144 181.299,198.885 179.688 C 198.165 175.221,196.602 172.287,193.063 168.759 C 188.085 163.796,184.968 163.054,180.030 165.656 M190.392 177.754 C 194.508 181.368,192.588 189.899,187.891 188.867 C 183.833 187.976,181.950 180.485,185.080 177.689 C 186.806 176.146,188.586 176.168,190.392 177.754 M159.806 181.645 C 163.818 182.760,166.293 187.995,164.658 191.908 C 162.122 197.979,153.516 194.925,153.516 187.954 C 153.516 183.317,156.185 180.640,159.806 181.645 M185.199 191.225 C 188.125 192.197,189.681 195.046,187.988 196.331 C 186.957 197.114,186.382 196.989,185.096 195.703 C 183.064 193.671,179.644 194.310,180.222 196.613 C 180.804 198.932,178.012 198.868,177.316 196.547 C 176.080 192.419,180.272 189.589,185.199 191.225 M119.244 192.468 C 119.837 192.558,120.716 192.555,121.197 192.462 C 121.677 192.370,121.191 192.296,120.117 192.299 C 119.043 192.302,118.650 192.378,119.244 192.468 M115.511 195.532 C 114.962 197.486,114.800 200.781,115.254 200.781 C 115.614 200.781,115.614 200.910,115.251 201.347 C 114.915 201.752,114.898 202.111,115.192 202.616 C 115.417 203.003,115.607 203.167,115.613 202.980 C 115.637 202.297,116.797 203.632,116.797 204.342 C 116.797 205.155,117.740 206.391,120.215 208.822 C 121.128 209.719,121.875 210.718,121.875 211.042 C 121.875 211.584,126.710 212.874,127.138 212.445 C 127.221 212.363,126.802 211.243,126.208 209.956 C 125.016 207.375,124.379 204.498,123.980 199.884 C 123.652 196.090,122.858 195.447,119.039 195.879 C 117.090 196.099,116.643 196.033,116.223 195.458 C 115.753 194.815,115.712 194.820,115.511 195.532 M198.650 205.173 C 198.231 206.174,197.444 206.958,195.972 207.838 C 194.175 208.913,193.700 209.470,192.548 211.853 C 185.566 226.300,162.790 228.104,157.690 214.614 C 154.891 207.212,155.187 203.731,158.474 205.407 C 166.456 209.480,178.787 210.405,187.424 207.579 C 189.580 206.874,197.222 203.121,197.535 202.614 C 198.230 201.490,199.229 203.786,198.650 205.173 M160.435 211.725 C 160.737 212.880,161.247 213.032,161.031 211.902 C 160.929 211.372,160.708 210.938,160.538 210.938 C 160.368 210.938,160.322 211.292,160.435 211.725 M189.453 232.617 C 180.910 234.982,178.968 237.692,179.405 246.637 C 180.212 263.164,192.997 271.945,206.641 265.343 C 214.692 261.448,216.727 255.260,213.290 245.131 C 209.485 233.917,200.947 229.435,189.453 232.617 M137.646 280.796 C 136.330 281.798,133.913 283.577,132.275 284.749 C 129.046 287.061,128.915 287.299,130.065 288.762 C 130.488 289.300,130.722 289.851,130.586 289.987 C 130.449 290.124,130.534 290.631,130.774 291.114 C 131.013 291.597,131.263 292.326,131.328 292.735 C 131.399 293.184,131.831 293.534,132.422 293.621 C 133.591 293.793,134.375 294.737,134.375 295.973 C 134.375 296.469,134.557 296.875,134.779 296.875 C 135.037 296.875,135.092 296.186,134.931 294.977 C 134.666 292.974,135.173 291.406,136.087 291.406 C 136.563 291.406,137.112 292.451,138.286 295.592 C 138.870 297.156,139.712 297.444,141.503 296.696 C 143.611 295.815,143.520 293.163,141.249 289.287 C 139.539 286.369,141.219 284.721,143.724 286.859 C 145.246 288.158,147.268 287.464,147.264 285.645 C 147.262 284.811,145.851 282.422,145.361 282.422 C 145.167 282.422,143.933 281.631,142.620 280.664 C 141.307 279.697,140.189 278.922,140.136 278.941 C 140.083 278.960,138.962 279.795,137.646 280.796 M130.469 293.657 C 130.469 294.105,131.531 295.313,131.924 295.313 C 132.050 295.313,131.819 294.917,131.412 294.434 C 131.005 293.950,130.627 293.481,130.571 293.392 C 130.515 293.302,130.469 293.422,130.469 293.657 M269.531 304.783 L 268.164 305.275 268.270 308.204 C 268.694 319.897,269.128 356.585,268.910 362.346 C 268.691 368.167,268.739 369.478,269.185 369.754 C 270.906 370.819,279.971 370.221,280.771 368.989 C 280.927 368.750,281.166 362.314,281.303 354.688 C 281.643 335.740,282.645 333.211,289.818 333.205 C 297.354 333.199,298.442 335.846,298.784 355.015 C 299.059 370.437,298.784 369.445,303.040 370.343 C 305.324 370.825,309.833 370.402,310.601 369.633 C 311.123 369.111,311.498 340.154,311.024 336.914 C 310.516 333.438,309.264 330.118,307.669 328.015 C 302.533 321.244,289.742 320.476,283.107 326.540 L 281.055 328.415 280.934 317.626 C 280.868 311.691,280.726 306.534,280.619 306.165 C 280.213 304.765,272.313 303.781,269.531 304.783 M194.086 312.075 C 193.213 312.781,193.157 313.103,193.028 318.129 L 192.892 323.438 190.196 323.438 C 186.153 323.438,185.198 324.997,185.626 330.902 C 185.835 333.800,186.073 333.971,189.918 333.978 L 192.921 333.984 193.059 346.973 C 193.216 361.635,193.306 362.170,196.173 365.427 C 199.799 369.546,206.544 371.232,213.275 369.701 C 216.826 368.894,216.992 368.644,216.992 364.100 L 216.992 360.352 212.872 360.156 C 205.508 359.807,205.469 359.727,205.469 344.934 L 205.469 333.984 207.198 333.984 C 214.946 333.984,216.797 332.974,216.797 328.745 C 216.797 323.956,216.679 323.861,210.563 323.734 L 205.696 323.633 205.628 318.636 C 205.573 314.572,205.438 313.504,204.905 312.915 C 203.404 311.257,195.824 310.668,194.086 312.075 M109.830 322.844 C 105.983 323.712,103.317 325.566,101.142 328.889 C 100.552 329.790,100.533 329.729,100.698 327.453 C 100.965 323.761,96.034 322.223,90.625 324.311 L 88.867 324.990 88.994 347.358 L 89.120 369.727 90.166 370.311 C 91.794 371.222,97.007 371.065,99.282 370.038 L 101.103 369.215 101.271 355.408 C 101.504 336.265,102.885 332.830,110.352 332.830 C 117.698 332.830,118.992 336.051,118.831 353.934 C 118.704 367.978,118.771 368.472,120.898 369.361 C 124.117 370.706,130.558 370.357,131.025 368.812 C 131.656 366.724,131.424 336.063,130.761 333.921 C 128.131 325.423,119.244 320.720,109.830 322.844 M155.677 323.449 C 147.048 325.266,141.228 329.988,140.905 335.433 C 140.802 337.175,141.296 337.338,147.912 337.740 L 152.269 338.005 153.050 336.483 C 156.364 330.019,168.750 330.570,168.750 337.181 C 168.750 341.261,166.692 342.402,158.356 342.944 C 144.951 343.815,138.867 348.338,138.867 357.430 C 138.867 371.798,159.972 377.479,168.583 365.428 L 169.393 364.294 169.223 365.746 C 169.006 367.605,169.534 368.212,172.019 368.961 C 173.702 369.468,180.298 369.832,180.691 369.439 C 181.137 368.993,181.300 336.253,180.867 334.180 C 178.925 324.887,168.975 320.648,155.677 323.449 M236.083 323.402 C 222.200 327.178,215.512 341.653,220.637 356.833 C 227.557 377.333,258.960 376.452,263.446 355.632 L 263.705 354.427 259.685 353.962 C 251.167 352.976,252.092 352.908,251.304 354.579 C 247.587 362.463,236.705 362.662,233.039 354.913 C 227.647 343.516,234.811 330.500,245.215 332.792 C 247.591 333.316,251.172 336.297,251.172 337.752 C 251.172 338.804,262.033 337.791,262.723 336.674 C 263.126 336.023,260.675 331.371,258.920 329.458 C 253.790 323.865,243.963 321.258,236.083 323.402 M169.141 351.390 C 169.141 358.296,165.342 361.719,157.677 361.719 C 153.001 361.719,151.172 360.330,151.172 356.779 C 151.172 352.510,153.552 351.498,168.848 349.262 C 169.009 349.238,169.141 350.196,169.141 351.390 " stroke="none" fill="#f2dbb1" fill-rule="evenodd"></path><path id="path2" d="M192.578 103.827 C 187.270 104.460,182.201 110.142,182.931 114.641 C 183.073 115.519,182.922 116.451,182.504 117.277 C 180.067 122.088,182.917 128.516,187.487 128.516 C 188.130 128.516,188.281 128.769,188.281 129.844 C 188.281 130.575,188.616 133.167,189.026 135.606 C 190.221 142.718,191.011 154.304,190.299 154.293 C 190.156 154.290,188.349 153.352,186.284 152.208 C 181.597 149.612,179.656 148.828,177.912 148.828 L 176.542 148.828 177.181 147.593 C 178.885 144.299,177.978 140.234,175.539 140.234 C 174.935 140.234,163.384 144.043,160.156 145.307 C 158.975 145.769,157.328 146.399,156.498 146.705 C 153.348 147.868,146.231 152.042,141.222 155.664 C 132.804 161.750,127.448 170.570,125.295 181.890 C 124.856 184.196,124.807 184.267,124.024 183.753 C 118.440 180.095,109.301 183.445,106.412 190.209 C 105.526 192.283,105.010 198.395,105.514 200.854 C 105.747 201.996,106.065 203.549,106.221 204.305 C 107.649 211.262,116.735 216.655,126.502 216.345 L 129.799 216.240 131.794 218.823 C 133.749 221.356,140.329 226.967,142.878 228.278 L 144.155 228.934 143.031 230.385 C 128.294 249.411,123.366 262.297,123.952 280.273 C 124.057 283.496,124.258 286.660,124.399 287.305 C 124.540 287.949,124.825 289.239,125.032 290.170 C 126.389 296.267,133.118 302.168,137.264 300.896 C 138.213 300.605,138.731 300.606,139.026 300.901 C 139.321 301.196,140.062 301.123,141.572 300.647 C 144.953 299.581,147.019 296.546,146.827 292.929 C 146.733 291.162,146.815 290.979,148.070 290.140 C 152.193 287.386,151.610 282.500,146.765 279.191 C 141.809 275.806,143.926 263.972,151.785 251.121 C 155.481 245.077,155.953 244.750,156.643 247.754 C 157.236 250.336,159.595 255.953,160.949 258.008 C 161.515 258.867,162.822 260.852,163.854 262.418 C 168.394 269.312,178.033 275.672,185.915 276.976 C 188.556 277.412,188.947 277.798,189.453 280.470 C 191.607 291.824,205.740 300.856,221.299 300.820 L 226.491 300.808 227.831 302.455 C 228.569 303.361,229.918 305.508,230.830 307.227 C 232.986 311.292,234.753 313.117,237.073 313.677 C 238.060 313.915,239.252 314.205,239.722 314.322 C 240.191 314.439,241.079 314.284,241.694 313.977 C 242.308 313.671,243.419 313.491,244.162 313.577 C 247.274 313.941,251.518 310.336,252.189 306.758 C 254.190 296.089,235.498 277.388,226.320 280.877 C 225.730 281.102,223.889 281.390,222.230 281.518 L 219.213 281.751 216.820 279.645 C 214.910 277.964,214.311 277.150,213.854 275.613 C 213.051 272.913,213.035 272.955,215.510 271.256 C 218.214 269.401,225.399 262.221,228.572 258.203 C 235.318 249.661,237.756 247.479,240.280 247.727 C 242.749 247.970,246.937 259.018,246.264 263.509 C 245.963 265.516,246.558 267.513,247.884 268.943 C 248.419 269.520,249.128 270.408,249.460 270.914 C 251.779 274.454,261.368 271.611,268.945 265.138 C 269.590 264.588,271.398 263.052,272.964 261.725 C 278.340 257.170,280.094 251.457,277.106 248.233 C 276.592 247.679,276.168 246.751,276.163 246.171 C 276.153 244.879,274.965 242.184,274.085 241.456 C 273.199 240.722,273.229 240.604,274.966 237.988 C 282.004 227.393,284.996 214.986,282.866 205.229 C 279.272 188.760,262.904 178.217,252.809 185.867 C 247.770 189.686,250.298 199.622,256.552 200.582 C 262.169 201.444,265.228 203.794,266.744 208.412 C 268.950 215.133,265.984 226.285,260.592 231.543 C 257.999 234.071,258.203 234.093,256.860 231.152 C 248.953 213.837,226.885 214.891,220.161 232.906 C 219.188 235.513,219.058 235.495,216.570 232.416 C 215.345 230.900,212.420 227.976,210.071 225.919 L 205.800 222.180 207.924 220.286 C 214.390 214.523,218.332 204.190,216.581 197.590 L 216.029 195.508 217.345 193.555 C 220.599 188.726,221.130 185.838,219.787 180.273 C 218.755 176.000,217.732 174.382,214.351 171.680 C 213.089 170.671,212.858 170.236,212.692 168.555 C 212.585 167.480,212.410 165.898,212.303 165.039 C 212.195 164.180,211.845 160.336,211.525 156.497 C 210.943 149.504,209.456 139.395,207.611 129.883 C 206.258 122.909,206.045 121.094,206.576 121.094 C 209.318 121.094,208.652 110.997,205.706 107.902 C 204.317 106.443,203.215 105.766,199.805 104.276 C 198.989 103.919,194.266 103.626,192.578 103.827 M200.211 108.247 C 206.620 110.631,207.430 119.923,201.229 119.921 C 198.720 119.920,196.764 118.875,196.464 117.375 C 195.806 114.071,194.308 113.151,190.787 113.888 C 186.553 114.774,185.775 114.282,187.158 111.595 C 189.289 107.459,194.499 106.122,200.211 108.247 M193.861 117.541 C 194.230 118.165,194.531 119.301,194.531 120.066 C 194.531 121.009,194.759 121.579,195.239 121.836 C 196.468 122.494,201.189 123.448,202.092 123.221 C 202.888 123.022,202.995 123.206,203.405 125.467 C 203.650 126.821,204.209 129.600,204.647 131.641 C 205.536 135.785,206.846 145.035,207.220 149.805 C 207.737 156.395,208.675 165.831,208.841 166.100 C 209.481 167.136,208.450 170.313,207.469 170.326 C 206.906 170.334,206.006 170.591,205.469 170.898 C 203.994 171.742,203.750 171.627,203.191 169.824 C 201.960 165.851,199.309 161.638,196.247 158.789 L 194.567 157.227 194.163 149.219 C 193.940 144.814,193.490 139.014,193.163 136.328 C 191.718 124.482,191.978 125.192,188.981 124.904 C 185.702 124.589,184.606 122.826,185.609 119.479 C 186.005 118.155,186.210 117.967,187.269 117.952 C 187.933 117.943,189.092 117.599,189.844 117.188 C 191.861 116.083,193.062 116.189,193.861 117.541 M174.219 144.742 C 174.219 146.078,171.906 148.964,167.867 152.669 C 166.338 154.072,166.089 154.485,166.412 155.088 C 167.053 156.287,167.258 156.246,170.508 154.265 C 175.251 151.372,177.853 151.370,182.031 154.255 C 183.213 155.071,185.258 156.307,186.577 157.002 C 196.308 162.129,202.442 173.761,200.572 183.537 C 199.868 187.211,199.867 187.109,200.612 187.109 C 203.126 187.109,209.127 191.139,210.725 193.901 C 217.368 205.380,207.480 220.586,188.867 227.518 C 170.357 234.411,144.679 228.953,134.872 216.041 C 128.995 208.302,125.608 198.572,128.809 198.617 C 129.642 198.629,129.912 198.429,130.012 197.722 C 130.526 194.090,118.135 190.910,116.364 194.219 C 115.910 195.068,116.525 196.155,117.314 195.897 C 119.383 195.221,123.793 195.844,123.840 196.820 C 123.997 200.042,125.139 206.939,125.758 208.398 C 126.031 209.043,126.502 210.154,126.806 210.867 C 127.754 213.097,127.628 213.110,120.717 211.471 C 113.939 209.864,111.171 207.777,109.761 203.213 C 105.573 189.655,115.929 180.814,125.434 189.832 C 126.807 191.134,128.193 192.151,128.516 192.092 C 129.342 191.942,129.506 189.550,128.748 188.713 C 127.714 187.570,129.530 178.576,132.148 171.875 C 135.822 162.470,149.470 152.347,165.039 147.480 C 168.262 146.472,171.426 145.408,172.070 145.115 C 173.311 144.550,174.219 144.392,174.219 144.742 M213.240 175.595 C 216.820 178.830,217.814 186.948,214.990 189.895 L 213.948 190.982 211.314 188.348 C 209.866 186.900,207.897 185.311,206.939 184.819 L 205.198 183.923 205.273 179.950 L 205.348 175.977 207.054 175.098 C 209.607 173.782,211.392 173.925,213.240 175.595 M185.174 177.657 C 181.851 180.980,184.201 188.672,188.538 188.672 C 193.412 188.672,194.072 179.550,189.375 177.110 C 187.744 176.263,186.391 176.439,185.174 177.657 M155.962 182.464 C 153.874 183.801,152.967 187.775,154.120 190.535 C 156.292 195.733,162.406 196.620,164.487 192.038 C 167.102 186.279,160.893 179.305,155.962 182.464 M263.788 188.082 C 269.168 189.483,273.660 192.920,276.045 197.461 C 283.227 211.130,279.142 228.844,265.753 242.090 C 261.332 246.464,261.713 246.457,260.650 242.176 L 259.778 238.659 261.357 237.232 C 267.009 232.126,272.751 216.983,271.514 210.446 C 269.762 201.189,266.614 197.904,258.306 196.664 C 253.649 195.970,252.579 190.143,256.767 188.281 C 258.783 187.384,260.882 187.325,263.788 188.082 M180.469 191.070 C 177.460 191.895,176.283 195.931,178.340 198.371 C 178.774 198.886,180.118 197.478,179.926 196.711 C 179.288 194.170,183.098 193.376,185.190 195.614 C 186.555 197.075,186.730 197.112,187.877 196.183 C 190.795 193.821,185.007 189.826,180.469 191.070 M192.969 205.139 C 182.202 210.583,170.996 210.831,159.367 205.883 C 155.918 204.415,155.757 204.503,156.040 207.710 C 156.922 217.681,162.133 222.824,171.855 223.319 C 181.506 223.810,188.443 219.964,192.421 211.914 C 193.647 209.434,194.147 208.839,195.903 207.775 C 198.277 206.336,199.436 204.485,198.643 203.400 C 198.018 202.545,198.222 202.482,192.969 205.139 M162.614 211.332 C 165.365 212.299,169.258 212.848,174.510 213.009 C 178.893 213.143,179.687 213.535,181.379 216.398 L 182.087 217.597 180.302 218.387 C 172.992 221.620,163.625 219.068,160.784 213.068 C 159.366 210.072,159.275 210.159,162.614 211.332 M242.913 223.222 C 246.449 224.164,250.996 227.843,252.664 231.112 C 254.667 235.037,259.368 251.407,258.770 252.374 C 258.131 253.409,259.509 252.898,260.357 251.785 C 261.746 249.964,267.715 244.849,269.172 244.232 C 271.467 243.259,274.122 246.299,271.956 247.419 C 267.730 249.605,263.832 258.196,267.375 257.519 C 268.108 257.379,268.471 256.897,268.968 255.401 C 269.589 253.532,272.090 250.391,272.958 250.391 C 274.931 250.391,275.445 253.928,273.798 256.168 C 271.256 259.624,257.418 268.763,254.760 268.741 C 251.347 268.714,249.791 266.886,249.944 263.086 C 250.183 257.154,247.212 247.687,244.194 244.766 L 242.621 243.242 240.015 243.486 C 235.484 243.909,233.713 245.310,226.432 254.236 C 221.393 260.413,214.736 267.170,211.508 269.385 C 209.183 270.980,209.180 270.985,209.217 272.893 C 209.303 277.321,212.400 282.000,216.793 284.341 L 219.182 285.615 222.579 285.093 C 231.449 283.729,234.302 284.641,240.436 290.799 C 248.875 299.270,251.248 306.741,246.174 308.862 C 244.639 309.504,244.360 309.370,243.511 307.581 C 242.591 305.641,241.261 305.833,241.089 307.930 C 240.743 312.120,237.687 310.631,234.570 304.756 C 230.596 297.263,228.812 295.771,224.738 296.537 C 211.948 298.940,195.281 289.400,192.977 278.359 C 192.317 275.196,191.280 274.135,187.962 273.227 C 174.781 269.620,163.927 258.947,160.303 246.032 C 159.602 243.534,157.365 240.625,156.145 240.625 C 153.197 240.625,144.561 255.089,142.150 264.063 C 139.621 273.473,139.769 278.467,142.634 280.469 C 146.118 282.904,146.569 283.314,147.074 284.515 C 148.219 287.238,146.389 288.422,143.469 286.847 C 140.290 285.132,139.701 285.997,141.538 289.683 C 143.655 293.933,143.758 295.849,141.920 296.817 C 139.698 297.986,138.435 297.134,137.460 293.807 C 136.471 290.431,134.365 291.473,135.064 294.993 C 135.575 297.571,135.640 297.524,133.245 296.310 C 125.948 292.613,125.538 273.285,132.364 254.860 C 134.309 249.608,139.773 241.122,145.495 234.464 L 148.527 230.936 151.279 231.872 C 166.156 236.933,184.171 235.210,197.848 227.419 C 199.995 226.196,201.886 225.136,202.049 225.065 C 204.008 224.205,214.818 235.688,218.168 242.188 C 218.999 243.799,219.729 245.186,219.791 245.271 C 220.203 245.834,221.249 243.929,222.101 241.063 C 226.615 225.881,232.843 220.542,242.913 223.222 " stroke="none" fill="#391a09" fill-rule="evenodd"></path><path id="path3" d="M194.253 107.288 C 194.380 107.493,193.897 107.582,193.137 107.493 C 192.322 107.398,191.797 107.506,191.797 107.770 C 191.797 108.008,191.665 108.182,191.504 108.157 C 190.756 108.039,190.208 108.236,190.404 108.553 C 190.523 108.745,190.349 109.007,190.017 109.134 C 189.671 109.267,189.515 109.201,189.651 108.980 C 190.111 108.237,189.589 108.604,188.452 109.826 C 187.821 110.504,187.568 110.930,187.891 110.774 C 188.255 110.597,188.221 110.699,187.799 111.045 C 187.426 111.351,187.236 111.715,187.376 111.855 C 187.516 111.995,187.469 112.110,187.272 112.110 C 186.176 112.113,186.809 114.261,187.929 114.341 C 188.623 114.390,188.993 114.266,188.848 114.032 C 188.695 113.784,188.998 113.739,189.674 113.909 C 190.476 114.110,190.666 114.055,190.439 113.687 C 190.215 113.325,190.364 113.270,191.013 113.476 C 191.512 113.634,192.281 113.545,192.797 113.269 C 193.611 112.833,193.834 112.915,194.996 114.086 C 195.707 114.802,196.056 115.247,195.772 115.075 C 195.346 114.817,195.343 114.904,195.759 115.569 C 196.121 116.149,196.348 116.242,196.568 115.902 C 196.736 115.642,196.764 116.001,196.631 116.698 C 196.352 118.152,197.000 119.218,197.944 118.856 C 198.316 118.713,198.466 118.778,198.318 119.018 C 198.164 119.267,198.471 119.355,199.133 119.249 C 199.928 119.122,200.054 119.178,199.632 119.472 C 199.230 119.753,199.675 119.841,201.191 119.780 C 202.948 119.710,203.387 119.546,203.747 118.825 C 203.985 118.347,204.323 117.826,204.497 117.669 C 204.670 117.512,204.670 117.630,204.494 117.931 C 204.285 118.292,204.325 118.388,204.610 118.212 C 204.849 118.064,204.934 117.657,204.799 117.306 C 204.643 116.898,204.710 116.764,204.986 116.935 C 205.266 117.108,205.405 116.793,205.384 116.036 C 205.366 115.395,205.235 114.942,205.094 115.029 C 204.952 115.117,204.847 114.364,204.860 113.356 C 204.876 112.033,204.739 111.553,204.365 111.631 C 204.081 111.690,203.943 111.585,204.059 111.398 C 204.506 110.674,200.769 107.923,199.992 108.403 C 199.782 108.533,199.609 108.470,199.609 108.263 C 199.609 108.055,199.230 107.985,198.767 108.106 C 198.192 108.256,198.013 108.183,198.203 107.877 C 198.382 107.587,198.161 107.431,197.580 107.437 C 197.085 107.442,196.083 107.330,195.355 107.186 C 194.574 107.033,194.121 107.075,194.253 107.288 M191.016 116.960 C 191.016 117.157,190.901 117.203,190.761 117.063 C 190.621 116.923,190.257 117.114,189.951 117.487 C 189.645 117.859,189.505 117.946,189.640 117.680 C 189.801 117.362,189.677 117.276,189.280 117.428 C 188.948 117.556,188.748 117.777,188.837 117.919 C 188.925 118.062,188.264 118.140,187.369 118.094 C 186.474 118.047,186.045 118.100,186.416 118.211 C 186.954 118.372,186.994 118.517,186.611 118.931 C 186.348 119.216,185.971 119.351,185.773 119.231 C 185.576 119.111,185.526 119.305,185.664 119.662 C 185.801 120.020,185.743 120.313,185.535 120.313 C 184.993 120.313,185.067 121.623,185.645 122.245 C 186.040 122.670,186.028 122.711,185.584 122.458 C 185.184 122.230,185.121 122.293,185.351 122.694 C 186.179 124.136,186.854 124.591,187.848 124.376 C 188.641 124.205,188.737 124.248,188.281 124.572 C 187.828 124.894,188.059 124.989,189.308 124.994 C 191.872 125.004,191.732 124.591,193.163 136.328 C 193.490 139.014,193.940 144.814,194.163 149.219 L 194.567 157.227 196.247 158.789 C 199.309 161.638,201.960 165.851,203.191 169.824 C 203.750 171.627,203.994 171.742,205.469 170.898 C 206.006 170.591,206.906 170.334,207.469 170.326 C 208.450 170.313,209.481 167.136,208.841 166.100 C 208.675 165.831,207.737 156.395,207.220 149.805 C 206.846 145.035,205.536 135.785,204.647 131.641 C 204.209 129.600,203.650 126.821,203.405 125.467 C 202.995 123.206,202.888 123.022,202.092 123.221 C 201.189 123.448,196.468 122.494,195.239 121.836 C 194.761 121.580,194.531 121.009,194.531 120.078 C 194.531 118.427,193.881 117.061,193.273 117.436 C 193.004 117.603,192.917 117.494,193.048 117.154 C 193.200 116.757,192.944 116.602,192.138 116.602 C 191.521 116.602,191.016 116.763,191.016 116.960 M172.070 145.115 C 171.426 145.408,168.262 146.472,165.039 147.480 C 149.470 152.347,135.822 162.470,132.148 171.875 C 129.530 178.576,127.714 187.570,128.748 188.713 C 129.552 189.601,129.338 191.941,128.437 192.112 C 128.072 192.181,127.369 191.766,126.875 191.189 C 125.139 189.163,121.871 186.745,121.211 186.998 C 120.811 187.151,120.672 187.086,120.835 186.822 C 120.998 186.558,120.820 186.473,120.357 186.594 C 119.951 186.700,119.501 186.596,119.357 186.362 C 119.027 185.829,117.578 185.801,117.578 186.328 C 117.578 186.543,117.271 186.716,116.895 186.713 C 116.310 186.708,116.296 186.652,116.797 186.328 C 117.571 185.828,117.191 185.841,115.683 186.366 C 115.007 186.602,114.453 186.983,114.453 187.213 C 114.453 187.442,114.339 187.516,114.199 187.376 C 114.059 187.236,113.694 187.426,113.389 187.799 C 113.043 188.221,112.940 188.255,113.117 187.891 C 113.274 187.568,112.832 187.832,112.135 188.477 C 110.628 189.871,109.627 191.647,110.005 192.259 C 110.174 192.533,110.101 192.590,109.810 192.410 C 109.470 192.200,109.416 192.412,109.612 193.190 C 109.804 193.955,109.750 194.177,109.424 193.975 C 109.111 193.782,108.994 194.043,109.053 194.807 C 109.099 195.420,109.005 196.135,108.843 196.398 C 108.680 196.660,108.702 196.875,108.890 196.875 C 109.078 196.875,109.158 197.842,109.068 199.023 C 108.977 200.205,109.053 201.172,109.237 201.173 C 109.420 201.173,109.590 201.719,109.614 202.386 C 109.638 203.053,109.814 203.711,110.005 203.850 C 110.195 203.988,110.369 204.321,110.391 204.590 C 110.481 205.724,110.567 205.893,110.933 205.667 C 111.147 205.534,111.224 205.677,111.105 205.987 C 110.597 207.310,116.874 211.034,119.717 211.096 C 120.648 211.116,121.206 211.262,120.959 211.420 C 120.668 211.605,120.751 211.709,121.191 211.713 C 122.354 211.723,121.950 210.527,120.215 208.822 C 117.740 206.391,116.797 205.155,116.797 204.342 C 116.797 203.632,115.637 202.297,115.613 202.980 C 115.607 203.167,115.417 203.003,115.192 202.616 C 114.898 202.111,114.915 201.752,115.251 201.347 C 115.605 200.921,115.608 200.781,115.263 200.781 C 113.777 200.781,115.952 193.680,117.598 193.158 C 118.017 193.025,118.359 192.752,118.359 192.552 C 118.359 192.351,119.150 192.188,120.117 192.188 C 121.143 192.188,121.875 192.368,121.875 192.620 C 121.875 192.891,122.254 192.958,122.884 192.800 C 123.482 192.650,123.800 192.698,123.665 192.917 C 123.534 193.128,123.797 193.192,124.279 193.066 C 124.785 192.934,125.026 193.000,124.883 193.233 C 124.751 193.446,125.583 194.010,126.732 194.486 C 130.111 195.886,131.503 198.656,128.809 198.617 C 125.608 198.572,128.995 208.302,134.872 216.041 C 139.964 222.746,155.058 230.210,163.177 230.039 C 165.030 230.000,165.032 229.998,163.672 229.673 C 154.699 227.527,141.924 219.156,140.657 214.592 C 139.139 209.125,140.851 203.927,145.573 199.665 L 148.120 197.366 146.121 195.496 C 141.439 191.116,139.596 183.481,142.050 178.631 C 147.816 167.234,165.051 164.113,169.823 173.602 L 170.593 175.134 172.014 172.914 C 174.729 168.669,181.135 164.063,184.322 164.063 C 190.382 164.063,197.664 171.932,198.922 179.841 C 199.870 185.798,201.543 183.724,200.778 177.539 C 199.727 169.035,194.174 161.005,186.577 157.002 C 185.258 156.307,183.213 155.071,182.031 154.255 C 177.853 151.370,175.251 151.372,170.508 154.265 C 167.258 156.246,167.053 156.287,166.412 155.088 C 166.089 154.485,166.338 154.072,167.867 152.669 C 171.906 148.964,174.219 146.078,174.219 144.742 C 174.219 144.392,173.311 144.550,172.070 145.115 M207.042 175.103 L 205.348 175.977 205.272 179.967 C 205.231 182.162,205.346 183.865,205.528 183.752 C 205.710 183.640,205.859 183.738,205.859 183.971 C 205.859 184.349,207.318 185.131,207.813 185.018 C 207.920 184.993,209.341 186.329,210.971 187.985 L 213.934 190.997 214.983 189.903 C 216.529 188.289,216.823 186.781,216.353 182.878 C 215.488 175.702,211.821 172.640,207.042 175.103 M256.767 188.281 C 252.579 190.143,253.649 195.970,258.306 196.664 C 266.614 197.904,269.762 201.189,271.514 210.446 C 272.751 216.983,267.009 232.126,261.357 237.232 L 259.778 238.659 260.650 242.176 C 261.713 246.457,261.332 246.464,265.753 242.090 C 279.142 228.844,283.227 211.130,276.045 197.461 C 272.324 190.379,262.534 185.716,256.767 188.281 M123.919 199.219 C 123.919 199.971,123.999 200.278,124.097 199.902 C 124.196 199.526,124.196 198.911,124.097 198.535 C 123.999 198.159,123.919 198.467,123.919 199.219 M159.772 210.840 C 159.775 211.001,159.967 211.396,160.199 211.719 C 160.555 212.213,160.586 212.198,160.401 211.621 C 160.280 211.245,160.331 210.938,160.514 210.938 C 160.697 210.938,160.929 211.372,161.031 211.902 C 161.132 212.433,161.067 212.776,160.886 212.664 C 160.705 212.552,160.714 212.865,160.905 213.359 C 161.097 213.853,161.439 214.216,161.667 214.165 C 161.895 214.114,161.992 214.306,161.882 214.591 C 161.465 215.679,166.245 219.137,167.281 218.497 C 167.544 218.335,167.583 218.426,167.388 218.742 C 167.152 219.123,167.369 219.203,168.283 219.068 C 168.947 218.971,169.401 219.035,169.292 219.211 C 169.183 219.387,169.530 219.531,170.062 219.531 C 170.594 219.531,171.337 219.649,171.712 219.793 C 172.173 219.970,172.303 219.908,172.115 219.604 C 171.911 219.273,172.544 219.205,174.492 219.348 C 176.477 219.494,177.000 219.435,176.563 219.115 C 176.107 218.782,176.224 218.741,177.090 218.931 C 178.375 219.213,180.884 218.502,180.753 217.893 C 180.704 217.666,180.908 217.392,181.207 217.283 C 181.571 217.151,181.647 217.251,181.439 217.588 C 181.236 217.917,181.285 217.993,181.580 217.811 C 182.235 217.406,182.179 217.291,180.566 215.728 C 179.761 214.947,179.541 214.642,180.078 215.048 C 180.786 215.585,180.710 215.423,179.803 214.462 C 178.490 213.072,175.288 212.562,173.242 213.419 C 172.629 213.675,172.587 213.655,173.047 213.324 C 173.501 212.998,173.236 212.899,171.875 212.889 C 170.908 212.881,168.887 212.675,167.383 212.431 C 165.879 212.187,164.182 211.971,163.612 211.951 C 163.041 211.931,162.645 211.799,162.732 211.659 C 162.819 211.519,162.336 211.211,161.660 210.976 C 160.214 210.472,159.763 210.439,159.772 210.840 M235.938 223.026 C 229.131 224.418,225.733 228.847,222.101 241.063 C 221.249 243.929,220.203 245.834,219.791 245.271 C 219.729 245.186,218.999 243.799,218.168 242.188 C 214.818 235.688,204.008 224.205,202.049 225.065 C 201.886 225.136,199.995 226.196,197.848 227.419 C 184.171 235.210,166.156 236.933,151.279 231.872 L 148.527 230.936 145.495 234.464 C 134.997 246.679,130.185 257.132,127.972 272.532 C 127.038 279.030,127.348 288.185,128.516 288.599 C 128.706 288.667,128.766 288.975,128.647 289.283 C 128.529 289.591,128.621 289.844,128.852 289.844 C 129.083 289.844,129.171 290.107,129.048 290.430 C 128.924 290.752,129.028 291.016,129.278 291.016 C 129.529 291.016,129.625 291.191,129.492 291.406 C 129.359 291.621,129.447 291.797,129.688 291.797 C 129.928 291.797,130.016 291.973,129.883 292.188 C 129.750 292.402,129.838 292.578,130.078 292.578 C 130.318 292.578,130.406 292.754,130.273 292.969 C 130.141 293.184,130.174 293.365,130.348 293.372 C 130.522 293.378,131.002 293.847,131.414 294.413 C 131.899 295.077,131.968 295.339,131.610 295.153 C 131.304 294.994,131.388 295.135,131.796 295.466 C 132.203 295.798,132.714 295.960,132.929 295.826 C 133.145 295.693,133.559 295.908,133.848 296.304 C 134.342 296.979,134.375 296.963,134.375 296.048 C 134.375 294.742,133.614 293.796,132.422 293.621 C 131.831 293.534,131.399 293.184,131.328 292.735 C 131.263 292.326,131.032 291.631,130.814 291.189 C 130.596 290.748,130.469 290.220,130.530 290.017 C 130.592 289.814,130.323 289.171,129.933 288.587 C 128.879 287.010,128.249 287.642,137.627 280.864 C 139.971 279.170,140.553 278.555,140.404 277.934 C 138.608 270.475,147.418 247.450,154.276 241.679 C 156.538 239.776,159.058 241.596,160.303 246.032 C 163.927 258.947,174.781 269.620,187.962 273.227 C 191.280 274.135,192.317 275.196,192.977 278.359 C 195.281 289.400,211.948 298.940,224.738 296.537 C 228.812 295.771,230.596 297.263,234.570 304.756 C 237.687 310.631,240.743 312.120,241.089 307.930 C 241.261 305.833,242.591 305.641,243.511 307.581 C 244.360 309.370,244.639 309.504,246.174 308.862 C 251.248 306.741,248.875 299.270,240.436 290.799 C 234.302 284.641,231.449 283.729,222.579 285.093 L 219.182 285.615 216.793 284.341 C 212.400 282.000,209.303 277.321,209.217 272.893 C 209.180 270.985,209.183 270.980,211.508 269.385 C 214.736 267.170,221.393 260.413,226.432 254.236 C 233.713 245.310,235.484 243.909,240.015 243.486 L 242.621 243.242 244.194 244.766 C 247.212 247.687,250.183 257.154,249.944 263.086 C 249.791 266.886,251.347 268.714,254.760 268.741 C 257.418 268.763,271.256 259.624,273.798 256.168 C 275.445 253.928,274.931 250.391,272.958 250.391 C 272.090 250.391,269.589 253.532,268.968 255.401 C 268.471 256.897,268.108 257.379,267.375 257.519 C 263.832 258.196,267.730 249.605,271.956 247.419 C 274.122 246.299,271.467 243.259,269.172 244.232 C 267.715 244.849,261.746 249.964,260.357 251.785 C 259.509 252.898,258.131 253.409,258.770 252.374 C 259.368 251.407,254.667 235.037,252.664 231.112 C 249.668 225.240,242.367 221.710,235.938 223.026 M200.920 232.259 C 212.516 235.248,219.417 254.053,211.742 261.748 C 204.563 268.946,192.305 269.434,185.810 262.782 C 179.272 256.085,177.064 242.019,181.700 236.595 C 184.986 232.751,194.500 230.604,200.920 232.259 " stroke="none" fill="#c37113" fill-rule="evenodd"></path><path id="path4" d="M111.426 28.785 C 111.802 28.883,112.417 28.883,112.793 28.785 C 113.169 28.687,112.861 28.606,112.109 28.606 C 111.357 28.606,111.050 28.687,111.426 28.785 M203.409 45.594 C 204.103 45.681,205.333 45.682,206.144 45.598 C 206.954 45.513,206.387 45.442,204.883 45.441 C 203.379 45.439,202.716 45.508,203.409 45.594 M188.920 60.029 C 189.163 60.206,189.459 60.703,189.578 61.133 C 189.747 61.749,189.777 61.714,189.721 60.968 C 189.681 60.448,189.385 59.951,189.063 59.864 C 188.675 59.760,188.627 59.816,188.920 60.029 M89.233 88.770 L 88.086 90.039 89.355 88.892 C 90.539 87.822,90.805 87.500,90.503 87.500 C 90.436 87.500,89.864 88.071,89.233 88.770 M160.718 102.441 L 159.570 103.711 160.840 102.564 C 162.023 101.494,162.289 101.172,161.987 101.172 C 161.920 101.172,161.349 101.743,160.718 102.441 M108.374 109.473 L 107.227 110.742 108.496 109.595 C 109.679 108.525,109.945 108.203,109.643 108.203 C 109.576 108.203,109.005 108.774,108.374 109.473 M98.350 112.787 C 99.269 112.869,100.675 112.868,101.475 112.784 C 102.275 112.700,101.523 112.632,99.805 112.634 C 98.086 112.635,97.431 112.704,98.350 112.787 M258.891 114.729 C 259.377 114.823,260.080 114.819,260.454 114.722 C 260.827 114.624,260.430 114.547,259.570 114.552 C 258.711 114.556,258.405 114.636,258.891 114.729 M210.059 115.119 C 210.542 115.213,211.333 115.213,211.816 115.119 C 212.300 115.026,211.904 114.950,210.938 114.950 C 209.971 114.950,209.575 115.026,210.059 115.119 M268.657 115.120 C 269.143 115.213,269.846 115.210,270.219 115.112 C 270.593 115.014,270.195 114.938,269.336 114.942 C 268.477 114.947,268.171 115.027,268.657 115.120 M279.980 115.510 C 280.464 115.603,281.255 115.603,281.738 115.510 C 282.222 115.417,281.826 115.341,280.859 115.341 C 279.893 115.341,279.497 115.417,279.980 115.510 M217.871 118.649 C 219.214 118.725,221.411 118.725,222.754 118.649 C 224.097 118.572,222.998 118.510,220.313 118.510 C 217.627 118.510,216.528 118.572,217.871 118.649 M263.175 118.641 C 263.868 118.728,265.099 118.729,265.909 118.644 C 266.720 118.560,266.152 118.489,264.648 118.488 C 263.145 118.486,262.481 118.555,263.175 118.641 M275.684 119.033 C 276.382 119.119,277.524 119.119,278.223 119.033 C 278.921 118.946,278.350 118.875,276.953 118.875 C 275.557 118.875,274.985 118.946,275.684 119.033 M285.547 130.591 C 285.547 130.658,286.118 131.229,286.816 131.861 L 288.086 133.008 286.939 131.738 C 285.869 130.555,285.547 130.289,285.547 130.591 M306.030 132.520 L 304.883 133.789 306.152 132.642 C 306.851 132.011,307.422 131.439,307.422 131.372 C 307.422 131.070,307.100 131.336,306.030 132.520 M268.100 309.375 C 268.100 310.986,268.169 311.646,268.253 310.840 C 268.338 310.034,268.338 308.716,268.253 307.910 C 268.169 307.104,268.100 307.764,268.100 309.375 M196.973 311.217 C 197.563 311.307,198.530 311.307,199.121 311.217 C 199.712 311.128,199.229 311.055,198.047 311.055 C 196.865 311.055,196.382 311.128,196.973 311.217 M205.559 316.016 C 205.559 316.768,205.640 317.075,205.738 316.699 C 205.836 316.323,205.836 315.708,205.738 315.332 C 205.640 314.956,205.559 315.264,205.559 316.016 M281.002 320.508 C 281.003 322.656,281.069 323.485,281.148 322.350 C 281.227 321.215,281.226 319.457,281.146 318.444 C 281.066 317.431,281.001 318.359,281.002 320.508 M205.559 322.266 C 205.559 323.018,205.640 323.325,205.738 322.949 C 205.836 322.573,205.836 321.958,205.738 321.582 C 205.640 321.206,205.559 321.514,205.559 322.266 M268.510 326.563 C 268.510 329.248,268.572 330.347,268.649 329.004 C 268.725 327.661,268.725 325.464,268.649 324.121 C 268.572 322.778,268.510 323.877,268.510 326.563 M190.532 323.323 C 191.018 323.417,191.721 323.413,192.094 323.315 C 192.468 323.217,192.070 323.141,191.211 323.145 C 190.352 323.150,190.046 323.230,190.532 323.323 M210.831 323.719 C 211.525 323.806,212.755 323.807,213.566 323.723 C 214.376 323.638,213.809 323.567,212.305 323.566 C 210.801 323.564,210.138 323.633,210.831 323.719 M216.888 328.516 C 216.888 329.268,216.968 329.575,217.066 329.199 C 217.164 328.823,217.164 328.208,217.066 327.832 C 216.968 327.456,216.888 327.764,216.888 328.516 M88.853 350.391 C 88.853 360.811,88.903 365.073,88.965 359.863 C 89.026 354.653,89.026 346.128,88.965 340.918 C 88.903 335.708,88.853 339.971,88.853 350.391 M242.090 332.698 C 242.573 332.791,243.364 332.791,243.848 332.698 C 244.331 332.604,243.936 332.528,242.969 332.528 C 242.002 332.528,241.606 332.604,242.090 332.698 M205.580 335.742 C 205.583 336.816,205.659 337.209,205.749 336.616 C 205.839 336.022,205.836 335.143,205.744 334.663 C 205.651 334.182,205.578 334.668,205.580 335.742 M181.405 342.969 C 181.405 346.084,181.466 347.358,181.540 345.801 C 181.614 344.243,181.614 341.694,181.540 340.137 C 181.466 338.579,181.405 339.854,181.405 342.969 M159.282 342.854 C 159.768 342.948,160.471 342.944,160.844 342.847 C 161.218 342.749,160.820 342.672,159.961 342.677 C 159.102 342.681,158.796 342.761,159.282 342.854 M118.899 348.242 C 118.900 350.820,118.963 351.824,119.040 350.473 C 119.116 349.122,119.115 347.012,119.038 345.785 C 118.961 344.559,118.898 345.664,118.899 348.242 M101.284 345.898 C 101.287 346.973,101.362 347.366,101.452 346.772 C 101.542 346.178,101.540 345.299,101.447 344.819 C 101.354 344.338,101.281 344.824,101.284 345.898 M231.367 346.094 C 231.367 347.275,231.440 347.759,231.530 347.168 C 231.619 346.577,231.619 345.610,231.530 345.020 C 231.440 344.429,231.367 344.912,231.367 346.094 M298.608 354.297 C 298.608 359.990,298.663 362.319,298.729 359.473 C 298.796 356.626,298.796 351.968,298.729 349.121 C 298.663 346.274,298.608 348.604,298.608 354.297 M281.381 347.266 C 281.381 348.877,281.450 349.536,281.535 348.730 C 281.619 347.925,281.619 346.606,281.535 345.801 C 281.450 344.995,281.381 345.654,281.381 347.266 M268.915 353.320 C 268.916 357.832,268.973 359.624,269.042 357.303 C 269.111 354.982,269.111 351.290,269.041 349.100 C 268.972 346.909,268.915 348.809,268.915 353.320 M192.690 351.367 C 192.693 352.441,192.769 352.834,192.858 352.241 C 192.948 351.647,192.946 350.768,192.853 350.288 C 192.760 349.807,192.687 350.293,192.690 351.367 M131.391 354.297 C 131.391 356.338,131.457 357.173,131.537 356.152 C 131.618 355.132,131.618 353.462,131.537 352.441 C 131.457 351.421,131.391 352.256,131.391 354.297 M254.204 353.401 C 254.690 353.495,255.393 353.491,255.766 353.393 C 256.140 353.296,255.742 353.219,254.883 353.224 C 254.023 353.228,253.718 353.308,254.204 353.401 M180.958 357.227 C 180.962 358.086,181.042 358.392,181.136 357.906 C 181.229 357.420,181.226 356.717,181.128 356.343 C 181.030 355.970,180.954 356.367,180.958 357.227 M138.372 357.422 C 138.372 358.174,138.452 358.481,138.551 358.105 C 138.649 357.729,138.649 357.114,138.551 356.738 C 138.452 356.362,138.372 356.670,138.372 357.422 M211.035 360.053 C 212.056 360.133,213.726 360.133,214.746 360.053 C 215.767 359.972,214.932 359.906,212.891 359.906 C 210.850 359.906,210.015 359.972,211.035 360.053 M311.089 364.648 C 311.090 367.441,311.152 368.533,311.228 367.074 C 311.303 365.614,311.302 363.329,311.226 361.995 C 311.150 360.662,311.089 361.855,311.089 364.648 M177.441 369.801 C 177.817 369.899,178.433 369.899,178.809 369.801 C 179.185 369.702,178.877 369.622,178.125 369.622 C 177.373 369.622,177.065 369.702,177.441 369.801 M273.730 370.588 C 274.214 370.681,275.005 370.681,275.488 370.588 C 275.972 370.495,275.576 370.419,274.609 370.419 C 273.643 370.419,273.247 370.495,273.730 370.588 " stroke="none" fill="#789fb8" fill-rule="evenodd"></path></g></svg>